<svg width="24" height="24" viewBox="0 0 24 24" fill="none" xmlns="http://www.w3.org/2000/svg">
<path d="M12.0001 7.19297C9.33996 7.19297 7.19308 9.33984 7.19308 12C7.19308 14.6601 9.33996 16.807 12.0001 16.807C14.6603 16.807 16.8072 14.6601 16.8072 12C16.8072 9.33984 14.6603 7.19297 12.0001 7.19297ZM12.0001 15.1242C10.2798 15.1242 8.8759 13.7203 8.8759 12C8.8759 10.2797 10.2798 8.87578 12.0001 8.87578C13.7204 8.87578 15.1243 10.2797 15.1243 12C15.1243 13.7203 13.7204 15.1242 12.0001 15.1242ZM17.004 5.87578C16.3829 5.87578 15.8814 6.37734 15.8814 6.99843C15.8814 7.61953 16.3829 8.12109 17.004 8.12109C17.6251 8.12109 18.1267 7.62187 18.1267 6.99843C18.1269 6.85095 18.098 6.70488 18.0416 6.56859C17.9853 6.4323 17.9026 6.30847 17.7983 6.20418C17.694 6.0999 17.5702 6.01721 17.4339 5.96086C17.2976 5.90451 17.1515 5.87559 17.004 5.87578ZM21.3704 12C21.3704 10.7062 21.3822 9.42421 21.3095 8.13281C21.2368 6.63281 20.8947 5.30156 19.7978 4.20468C18.6986 3.10547 17.3697 2.76562 15.8697 2.69297C14.5759 2.62031 13.2939 2.63203 12.0025 2.63203C10.7087 2.63203 9.42668 2.62031 8.13527 2.69297C6.63527 2.76562 5.30402 3.10781 4.20714 4.20468C3.10792 5.3039 2.76808 6.63281 2.69542 8.13281C2.62277 9.42656 2.63449 10.7086 2.63449 12C2.63449 13.2914 2.62277 14.5758 2.69542 15.8672C2.76808 17.3672 3.11027 18.6984 4.20714 19.7953C5.30636 20.8945 6.63527 21.2344 8.13527 21.307C9.42902 21.3797 10.7111 21.368 12.0025 21.368C13.2962 21.368 14.5782 21.3797 15.8697 21.307C17.3697 21.2344 18.7009 20.8922 19.7978 19.7953C20.897 18.6961 21.2368 17.3672 21.3095 15.8672C21.3845 14.5758 21.3704 13.2937 21.3704 12ZM19.3079 17.5266C19.1368 17.9531 18.9306 18.2719 18.6001 18.6C18.2697 18.9305 17.9532 19.1367 17.5267 19.3078C16.2939 19.7976 13.3665 19.6875 12.0001 19.6875C10.6337 19.6875 7.70402 19.7976 6.47121 19.3101C6.04465 19.1391 5.72589 18.9328 5.39777 18.6023C5.0673 18.2719 4.86105 17.9555 4.68996 17.5289C4.20246 16.2937 4.31261 13.3664 4.31261 12C4.31261 10.6336 4.20246 7.7039 4.68996 6.47109C4.86105 6.04453 5.0673 5.72578 5.39777 5.39765C5.72824 5.06953 6.04465 4.86093 6.47121 4.68984C7.70402 4.20234 10.6337 4.3125 12.0001 4.3125C13.3665 4.3125 16.2962 4.20234 17.529 4.68984C17.9556 4.86093 18.2743 5.06718 18.6025 5.39765C18.9329 5.72812 19.1392 6.04453 19.3103 6.47109C19.7978 7.7039 19.6876 10.6336 19.6876 12C19.6876 13.3664 19.7978 16.2937 19.3079 17.5266Z" fill="white"/>
</svg>
