<svg width="164" height="41" viewBox="0 0 164 41" fill="none" xmlns="http://www.w3.org/2000/svg">
<g clip-path="url(#clip0_219_2603)">
<path fill-rule="evenodd" clip-rule="evenodd" d="M29.0728 7.32926C29.0728 10.9663 26.1245 13.9146 22.4874 13.9146C18.8503 13.9146 15.902 10.9663 15.902 7.32926C15.902 3.69219 18.8503 0.743896 22.4874 0.743896C26.1245 0.743896 29.0728 3.69219 29.0728 7.32926ZM21.7557 20.9878C21.7557 24.6249 18.8074 27.5732 15.1703 27.5732C11.5333 27.5732 8.58496 24.6249 8.58496 20.9878C8.58496 17.3507 11.5333 14.4024 15.1703 14.4024C18.8074 14.4024 21.7557 17.3507 21.7557 20.9878ZM37.3654 20.9878C37.3654 24.6249 34.4172 27.5732 30.7801 27.5732C27.143 27.5732 24.1947 24.6249 24.1947 20.9878C24.1947 17.3507 27.143 14.4024 30.7801 14.4024C34.4172 14.4024 37.3654 17.3507 37.3654 20.9878ZM44.1947 33.6707C44.1947 37.3078 41.2464 40.2561 37.6094 40.2561C33.9723 40.2561 31.024 37.3078 31.024 33.6707C31.024 30.0337 33.9723 27.0854 37.6094 27.0854C41.2464 27.0854 44.1947 30.0337 44.1947 33.6707Z" fill="#646464"/>
<mask id="mask0_219_2603" style="mask-type:alpha" maskUnits="userSpaceOnUse" x="1" y="27" width="14" height="14">
<path d="M1.26807 27.1751H14.2217V40.1288H1.26807V27.1751Z" fill="white"/>
</mask>
<g mask="url(#mask0_219_2603)">
<path fill-rule="evenodd" clip-rule="evenodd" d="M14.2217 33.6517C14.2217 37.2288 11.3217 40.1288 7.74465 40.1288C4.16807 40.1288 1.26807 37.2288 1.26807 33.6512C1.26807 30.0736 4.16807 27.1751 7.74465 27.1751C11.3217 27.1751 14.2217 30.0746 14.2217 33.6517" fill="#646464"/>
</g>
<mask id="mask1_219_2603" style="mask-type:alpha" maskUnits="userSpaceOnUse" x="1" y="1" width="163" height="40">
<path d="M1.26807 40.2561H163.219V1.23169H1.26807V40.2561Z" fill="white"/>
</mask>
<g mask="url(#mask1_219_2603)">
<path fill-rule="evenodd" clip-rule="evenodd" d="M55.6458 34.4434L54.9175 32.5741L54.1863 34.4434H55.6458V34.4434ZM56.2873 36.102L55.8219 34.9005H54.0102L53.539 36.1015H52.9756L54.6722 31.7659H55.2731L56.9434 36.1015H56.2873V36.102ZM58.4092 36.1751C58.1488 36.1751 57.8327 36.1137 57.461 35.9902V35.46C57.8327 35.6478 58.1566 35.7415 58.4317 35.7415C58.5956 35.7415 58.7317 35.6966 58.8395 35.6063C58.8906 35.5665 58.9317 35.5154 58.9598 35.457C58.9879 35.3986 59.0022 35.3345 59.0014 35.2698C59.0014 35.0722 58.8502 34.9093 58.5478 34.7805L58.2151 34.6366C57.7239 34.4298 57.4785 34.1317 57.4785 33.7434C57.4785 33.4659 57.5751 33.2478 57.7688 33.0883C57.9624 32.9293 58.2278 32.8493 58.5649 32.8493C58.7405 32.8493 58.957 32.8737 59.2151 32.9229L59.3336 32.9463V33.4268C59.0156 33.3312 58.7634 33.2834 58.5766 33.2834C58.2107 33.2834 58.0273 33.418 58.0273 33.6878C58.0273 33.8615 58.1663 34.0078 58.4434 34.1268L58.718 34.2439C59.0283 34.3771 59.2478 34.5171 59.3766 34.6649C59.5063 34.8122 59.5707 34.9966 59.5707 35.2171C59.5733 35.3493 59.5451 35.4803 59.4883 35.5997C59.4316 35.7191 59.3479 35.8238 59.2439 35.9054C59.0263 36.0849 58.7478 36.1751 58.4088 36.1751H58.4092ZM61.5331 36.1751C61.2444 36.1751 61.019 36.0907 60.857 35.9229C60.6951 35.7551 60.6141 35.5215 60.6141 35.2229V33.3537H60.2214V32.92H60.6141V32.3429L61.1834 32.2873V32.92H62.0044V33.3537H61.1834V35.1171C61.1834 35.5332 61.361 35.7415 61.7151 35.7415C61.7902 35.7415 61.8819 35.7288 61.9897 35.7034V36.1015C61.8141 36.1502 61.6624 36.1746 61.5331 36.1746V36.1751ZM64.421 35.6971C64.0795 36.0156 63.7512 36.1751 63.4356 36.1751C63.1751 36.1751 62.9595 36.0922 62.7878 35.9273C62.6166 35.7624 62.5307 35.5537 62.5307 35.302C62.5307 34.9541 62.6746 34.6873 62.9624 34.5005C63.2502 34.3141 63.6634 34.221 64.2009 34.221H64.3366V33.8371C64.3366 33.4678 64.1497 33.2834 63.7761 33.2834C63.4756 33.2834 63.1512 33.3771 62.8024 33.5644V33.0868C63.1858 32.9288 63.5449 32.8498 63.8805 32.8498C64.2307 32.8498 64.4892 32.9298 64.6561 33.0898C64.8229 33.2502 64.9058 33.4995 64.9058 33.8371V35.2785C64.9058 35.6083 65.0063 35.7737 65.2068 35.7737C65.2317 35.7737 65.2683 35.7698 65.3166 35.762L65.3571 36.081C65.2235 36.1446 65.0772 36.1768 64.9292 36.1751C64.6634 36.1751 64.4936 36.0156 64.4205 35.6971H64.421ZM64.3366 35.3839V34.5605L64.1463 34.5546C63.8341 34.5546 63.5814 34.6146 63.3888 34.7351C63.1961 34.8551 63.1 35.0132 63.1 35.2083C63.1 35.3468 63.1483 35.4639 63.2444 35.5595C63.2903 35.6062 63.3452 35.6431 63.4059 35.6678C63.4665 35.6926 63.5316 35.7047 63.597 35.7034C63.8341 35.7034 64.0805 35.5966 64.3366 35.3839V35.3839ZM66.0683 36.1015V32.92H66.6375V33.5176C66.938 33.0722 67.3058 32.8493 67.7414 32.8493C68.0131 32.8493 68.2297 32.9371 68.3917 33.1117C68.5536 33.2868 68.6346 33.5215 68.6346 33.8166V36.1015H68.0649V34.0039C68.0649 33.7678 68.0307 33.599 67.9624 33.4985C67.8941 33.398 67.7809 33.3473 67.6229 33.3473C67.2741 33.3473 66.9458 33.579 66.6375 34.042V36.1015H66.0683V36.1015ZM69.7502 37.1595L69.8166 36.6585C70.1463 36.8166 70.4707 36.8956 70.7907 36.8956C71.4322 36.8956 71.7531 36.5507 71.7531 35.8615V35.3605C71.5429 35.8059 71.198 36.0288 70.7185 36.0288C70.3429 36.0288 70.0439 35.8898 69.8224 35.6122C69.6009 35.3351 69.4902 34.961 69.4902 34.4902C69.4902 34.0059 69.6166 33.6112 69.8688 33.3068C70.1209 33.0019 70.4478 32.8498 70.8483 32.8498C71.1995 32.8498 71.5005 32.9941 71.7531 33.2834V32.92H72.3253V35.2346C72.3253 35.7322 72.2995 36.101 72.2488 36.3405C72.1975 36.5795 72.1014 36.7756 71.961 36.9278C71.7122 37.1956 71.3263 37.3293 70.8019 37.3293C70.4444 37.3307 70.0891 37.2733 69.7502 37.1595V37.1595ZM71.7531 35V33.679C71.5024 33.4151 71.2297 33.2834 70.9351 33.2834C70.6731 33.2834 70.4678 33.3898 70.3195 33.6024C70.1712 33.8156 70.097 34.1073 70.097 34.4785C70.097 35.1761 70.339 35.5244 70.8224 35.5244C71.1517 35.5244 71.4619 35.3498 71.7531 35ZM75.3858 36.1015V35.5039C75.0834 35.9512 74.7161 36.1751 74.2849 36.1751C74.0112 36.1751 73.7936 36.0873 73.6312 35.9127C73.4702 35.738 73.3888 35.502 73.3888 35.2054V32.9195H73.958V35.0171C73.958 35.2556 73.9922 35.4249 74.0605 35.5254C74.1288 35.6263 74.2434 35.6766 74.4034 35.6766C74.7497 35.6766 75.0775 35.4449 75.3858 34.982V32.9195H75.9551V36.101H75.3858V36.1015ZM78.9468 36.1015V31.7659H79.5161V33.8985L81.2473 31.7659H81.857L80.1809 33.8341L82.1546 36.1015H81.3858L79.5161 33.9044V36.1015H78.9468V36.1015ZM84.7878 36.1015V35.5039C84.4853 35.9512 84.118 36.1751 83.6868 36.1751C83.4131 36.1751 83.1951 36.0873 83.0331 35.9127C82.8717 35.738 82.7907 35.502 82.7907 35.2054V32.9195H83.36V35.0171C83.36 35.2556 83.3941 35.4249 83.4624 35.5254C83.5307 35.6263 83.6453 35.6766 83.8049 35.6766C84.1517 35.6766 84.4795 35.4449 84.7878 34.982V32.9195H85.357V36.101H84.7878V36.1015ZM87.438 36.1746C87.1492 36.1746 86.9234 36.0907 86.7619 35.9229C86.6 35.7551 86.519 35.5215 86.519 35.2229V33.3537H86.1258V32.92H86.519V32.3429L87.0883 32.2873V32.92H87.9092V33.3537H87.0883V35.1171C87.0883 35.5332 87.2658 35.7415 87.62 35.7415C87.6951 35.7415 87.7868 35.7288 87.8946 35.7034V36.1015C87.719 36.1502 87.5673 36.1746 87.438 36.1746V36.1746ZM89.5395 36.1746C89.279 36.1746 88.9634 36.1137 88.5917 35.9902V35.46C88.9634 35.6478 89.2868 35.7415 89.5624 35.7415C89.7263 35.7415 89.8619 35.6966 89.9697 35.6063C90.0208 35.5665 90.062 35.5154 90.0901 35.457C90.1182 35.3986 90.1324 35.3345 90.1317 35.2698C90.1317 35.0722 89.9805 34.9093 89.678 34.7805L89.3458 34.6366C88.8546 34.4298 88.6092 34.1317 88.6092 33.7434C88.6092 33.4659 88.7058 33.2478 88.899 33.0883C89.0927 32.9293 89.358 32.8493 89.6956 32.8493C89.8707 32.8493 90.0873 32.8737 90.3458 32.9229L90.4639 32.9463V33.4268C90.1463 33.3312 89.8936 33.2834 89.7068 33.2834C89.3409 33.2834 89.158 33.418 89.158 33.6878C89.158 33.8615 89.2966 34.0078 89.5741 34.1268L89.8488 34.2439C90.1585 34.3771 90.3785 34.5171 90.5073 34.6649C90.6366 34.8122 90.701 34.9966 90.701 35.2171C90.7035 35.3493 90.6753 35.4803 90.6186 35.5997C90.5619 35.7191 90.4782 35.8238 90.3741 35.9054C90.1566 36.0849 89.8785 36.1751 89.5395 36.1751V36.1746ZM94.0219 35.999C93.6405 36.1161 93.3136 36.1746 93.0424 36.1746C92.58 36.1746 92.2029 36.019 91.9107 35.7078C91.619 35.3961 91.4731 34.9922 91.4731 34.4961C91.4731 34.0137 91.6014 33.618 91.8585 33.3098C92.1161 33.001 92.4448 32.8463 92.8458 32.8463C93.2253 32.8463 93.519 32.9834 93.7258 33.2571C93.9327 33.5302 94.0366 33.919 94.0366 34.4229L94.0336 34.6015H92.0541C92.137 35.3576 92.5019 35.7356 93.1492 35.7356C93.3863 35.7356 93.677 35.6712 94.0219 35.5419V35.999ZM92.08 34.1683H93.4644C93.4644 33.5761 93.2463 33.2805 92.8107 33.2805C92.3736 33.2805 92.1302 33.5761 92.08 34.1683ZM95.0166 36.1015V32.92H95.5858V33.5176C95.8112 33.0722 96.1385 32.8493 96.5683 32.8493C96.6258 32.8493 96.6868 32.8541 96.7502 32.8639V33.4034C96.6668 33.373 96.579 33.3562 96.4902 33.3537C96.1297 33.3537 95.8283 33.5702 95.5858 34.0039V36.1015H95.0166V36.1015ZM99.7361 35.999C99.3546 36.1161 99.0278 36.1746 98.7561 36.1746C98.2936 36.1746 97.9171 36.019 97.6249 35.7078C97.3331 35.3961 97.1868 34.9922 97.1868 34.4961C97.1868 34.0137 97.3156 33.618 97.5727 33.3098C97.8302 33.001 98.159 32.8463 98.5595 32.8463C98.9395 32.8463 99.2327 32.9834 99.4395 33.2571C99.6468 33.5302 99.7502 33.919 99.7502 34.4229L99.7473 34.6015H97.7678C97.8507 35.3576 98.2161 35.7356 98.8634 35.7356C99.1 35.7356 99.3912 35.6712 99.7361 35.5419V35.999V35.999ZM97.7941 34.1683H99.178C99.178 33.5761 98.9605 33.2805 98.5249 33.2805C98.0878 33.2805 97.8439 33.5761 97.7941 34.1683ZM100.731 36.1015V31.4756H101.299V33.5176C101.6 33.0722 101.968 32.8493 102.403 32.8493C102.675 32.8493 102.892 32.9371 103.054 33.1117C103.216 33.2868 103.297 33.5215 103.297 33.8166V36.1015H102.727V34.0039C102.727 33.7678 102.693 33.599 102.625 33.4985C102.557 33.398 102.443 33.3473 102.285 33.3473C101.937 33.3473 101.608 33.579 101.3 34.042V36.1015H100.73H100.731ZM106.019 35.6976C105.678 36.0156 105.35 36.1751 105.034 36.1751C104.774 36.1751 104.558 36.0922 104.386 35.9273C104.215 35.7624 104.129 35.5537 104.129 35.302C104.129 34.9541 104.273 34.6873 104.561 34.5005C104.849 34.3141 105.262 34.221 105.799 34.221H105.936V33.8371C105.936 33.4678 105.749 33.2834 105.375 33.2834C105.074 33.2834 104.75 33.3771 104.401 33.5644V33.0868C104.784 32.9288 105.143 32.8498 105.479 32.8498C105.829 32.8498 106.088 32.9298 106.255 33.0898C106.421 33.2502 106.505 33.4995 106.505 33.8371V35.2785C106.505 35.6083 106.605 35.7737 106.805 35.7737C106.83 35.7737 106.867 35.7698 106.915 35.762L106.956 36.081C106.822 36.1446 106.676 36.1768 106.528 36.1751C106.262 36.1751 106.093 36.0156 106.019 35.6971V35.6976ZM105.936 35.3839V34.5605L105.745 34.5546C105.433 34.5546 105.18 34.6146 104.988 34.7351C104.795 34.8551 104.699 35.0132 104.699 35.2083C104.699 35.3468 104.747 35.4639 104.843 35.5595C104.889 35.6062 104.944 35.6431 105.004 35.6678C105.065 35.6926 105.13 35.7047 105.196 35.7034C105.433 35.7034 105.679 35.5966 105.936 35.3839V35.3839ZM107.667 36.1371V31.4756H108.236V33.5176C108.469 33.0722 108.819 32.8493 109.285 32.8493C109.663 32.8493 109.96 32.9893 110.177 33.2688C110.394 33.5478 110.502 33.9298 110.502 34.4141C110.502 34.9415 110.379 35.3668 110.133 35.6902C109.888 36.0132 109.564 36.1751 109.164 36.1751C108.792 36.1751 108.483 36.0302 108.236 35.741L108.167 36.1371H107.667V36.1371ZM108.236 35.3429C108.529 35.6083 108.808 35.7415 109.074 35.7415C109.621 35.7415 109.895 35.3185 109.895 34.4732C109.895 33.7268 109.652 33.3537 109.167 33.3537C108.849 33.3537 108.539 33.5283 108.236 33.878V35.3429ZM111.389 36.1015V32.92H111.959V36.1015H111.389ZM111.389 32.3429V31.7659H111.959V32.3429H111.389ZM113.098 36.1015V31.4756H113.667V36.1015H113.098V36.1015ZM114.806 36.1015V32.92H115.375V36.1015H114.806ZM114.806 32.3429V31.7659H115.375V32.3429H114.806ZM117.456 36.1751C117.167 36.1751 116.942 36.0907 116.78 35.9229C116.618 35.7551 116.538 35.5215 116.538 35.2229V33.3537H116.144V32.92H116.538V32.3429L117.107 32.2873V32.92H117.927V33.3537H117.107V35.1171C117.107 35.5332 117.284 35.7415 117.639 35.7415C117.714 35.7415 117.805 35.7288 117.913 35.7034V36.1015C117.738 36.1502 117.586 36.1746 117.456 36.1746V36.1751ZM120.344 35.6971C120.002 36.0156 119.674 36.1751 119.359 36.1751C119.098 36.1751 118.882 36.0922 118.711 35.9273C118.539 35.7624 118.454 35.5537 118.454 35.302C118.454 34.9541 118.598 34.6873 118.886 34.5005C119.174 34.3141 119.586 34.221 120.124 34.221H120.26V33.8371C120.26 33.4678 120.073 33.2834 119.699 33.2834C119.399 33.2834 119.074 33.3771 118.725 33.5644V33.0868C119.109 32.9288 119.468 32.8498 119.803 32.8498C120.154 32.8498 120.413 32.9298 120.579 33.0898C120.746 33.2502 120.829 33.4995 120.829 33.8371V35.2785C120.829 35.6083 120.929 35.7737 121.13 35.7737C121.155 35.7737 121.191 35.7698 121.239 35.762L121.28 36.081C121.146 36.1446 121 36.1768 120.852 36.1751C120.586 36.1751 120.417 36.0156 120.344 35.6971V35.6971ZM120.26 35.3839V34.5605L120.069 34.5546C119.757 34.5546 119.505 34.6146 119.312 34.7351C119.119 34.8551 119.023 35.0132 119.023 35.2083C119.023 35.3468 119.071 35.4639 119.167 35.5595C119.213 35.6062 119.268 35.6431 119.329 35.6678C119.389 35.6926 119.454 35.7047 119.52 35.7034C119.757 35.7034 120.003 35.5966 120.26 35.3839V35.3839ZM122.933 36.1751C122.644 36.1751 122.419 36.0907 122.257 35.9229C122.095 35.7551 122.015 35.5215 122.015 35.2229V33.3537H121.621V32.92H122.015V32.3429L122.584 32.2873V32.92H123.404V33.3537H122.584V35.1171C122.584 35.5332 122.761 35.7415 123.116 35.7415C123.191 35.7415 123.282 35.7288 123.39 35.7034V36.1015C123.215 36.1502 123.062 36.1746 122.933 36.1746V36.1751ZM125.035 36.1751C124.775 36.1751 124.459 36.1137 124.087 35.9902V35.46C124.459 35.6478 124.782 35.7415 125.058 35.7415C125.221 35.7415 125.358 35.6966 125.465 35.6063C125.516 35.5665 125.558 35.5154 125.586 35.457C125.614 35.3986 125.628 35.3345 125.627 35.2698C125.627 35.0722 125.476 34.9093 125.174 34.7805L124.841 34.6366C124.35 34.4298 124.104 34.1317 124.104 33.7434C124.104 33.4659 124.201 33.2478 124.395 33.0883C124.588 32.9293 124.853 32.8493 125.191 32.8493C125.366 32.8493 125.583 32.8737 125.841 32.9229L125.959 32.9463V33.4268C125.641 33.3312 125.389 33.2834 125.202 33.2834C124.837 33.2834 124.653 33.418 124.653 33.6878C124.653 33.8615 124.792 34.0078 125.069 34.1268L125.344 34.2439C125.654 34.3771 125.874 34.5171 126.002 34.6649C126.132 34.8122 126.197 34.9966 126.197 35.2171C126.199 35.3493 126.171 35.4803 126.114 35.5997C126.057 35.7191 125.974 35.8238 125.87 35.9054C125.652 36.0849 125.374 36.1751 125.035 36.1751V36.1751ZM127.217 36.102V32.9195H127.786V36.101H127.217V36.102ZM127.217 32.3429V31.7659H127.786V32.3429H127.217ZM130.154 36.1751C129.705 36.1751 129.346 36.0239 129.079 35.7224C128.81 35.4205 128.677 35.0166 128.677 34.5107C128.677 33.999 128.811 33.5941 129.08 33.2961C129.348 32.9985 129.713 32.8498 130.174 32.8498C130.634 32.8498 130.999 32.9985 131.267 33.2966C131.536 33.5941 131.671 33.9971 131.671 34.5049C131.671 35.0244 131.536 35.4327 131.266 35.7293C130.996 36.0268 130.625 36.1751 130.154 36.1751V36.1751ZM130.162 35.741C130.765 35.741 131.067 35.3293 131.067 34.5049C131.067 33.6902 130.769 33.2834 130.174 33.2834C129.58 33.2834 129.283 33.6927 129.283 34.5107C129.283 35.3312 129.576 35.7415 130.162 35.7415V35.741ZM133.786 36.1751C133.338 36.1751 132.979 36.0239 132.711 35.7224C132.443 35.4205 132.31 35.0166 132.31 34.5107C132.31 33.999 132.444 33.5941 132.713 33.2961C132.981 32.9985 133.346 32.8498 133.806 32.8498C134.267 32.8498 134.632 32.9985 134.9 33.2966C135.169 33.5941 135.303 33.9971 135.303 34.5049C135.303 35.0244 135.169 35.4327 134.899 35.7293C134.629 36.0268 134.259 36.1751 133.786 36.1751V36.1751ZM133.795 35.741C134.398 35.741 134.699 35.3293 134.699 34.5049C134.699 33.6902 134.402 33.2834 133.807 33.2834C133.213 33.2834 132.917 33.6927 132.917 34.5107C132.917 35.3312 133.209 35.7415 133.795 35.7415L133.795 35.741ZM136.191 36.102V32.9195H136.76V33.5171C137.061 33.0717 137.429 32.8488 137.864 32.8488C138.136 32.8488 138.353 32.9366 138.515 33.1112C138.677 33.2863 138.757 33.521 138.757 33.8161V36.101H138.188V34.0034C138.188 33.7673 138.154 33.5985 138.085 33.498C138.017 33.3976 137.904 33.3468 137.746 33.3468C137.397 33.3468 137.069 33.5785 136.76 34.0415V36.101H136.191V36.102ZM139.861 36.102V32.9195H140.431V36.101H139.861V36.102ZM139.861 32.3429V31.7659H140.431V32.3429H139.861ZM143.422 36.1015V31.7659H143.992V33.8985L145.723 31.7659H146.333L144.657 33.8341L146.63 36.1015H145.861L143.992 33.9044V36.1015H143.422V36.1015ZM149.601 35.999C149.22 36.1161 148.894 36.1746 148.622 36.1746C148.159 36.1746 147.782 36.019 147.49 35.7078C147.199 35.3961 147.053 34.9922 147.053 34.4961C147.053 34.0137 147.181 33.618 147.438 33.3098C147.696 33.001 148.025 32.8463 148.425 32.8463C148.805 32.8463 149.099 32.9834 149.305 33.2571C149.513 33.5302 149.616 33.919 149.616 34.4229L149.613 34.6015H147.634C147.717 35.3576 148.081 35.7356 148.729 35.7356C148.966 35.7356 149.257 35.6712 149.602 35.5419V35.999H149.601ZM147.66 34.1683H149.044C149.044 33.5761 148.826 33.2805 148.39 33.2805C147.953 33.2805 147.71 33.5761 147.659 34.1683H147.66ZM151.428 36.1751C151.168 36.1751 150.853 36.1137 150.48 35.9902V35.46C150.852 35.6478 151.176 35.7415 151.451 35.7415C151.615 35.7415 151.751 35.6966 151.859 35.6063C151.91 35.5665 151.951 35.5154 151.979 35.457C152.007 35.3986 152.022 35.3345 152.021 35.2698C152.021 35.0722 151.87 34.9093 151.567 34.7805L151.235 34.6366C150.743 34.4298 150.498 34.1317 150.498 33.7434C150.498 33.4659 150.595 33.2478 150.788 33.0883C150.982 32.9293 151.247 32.8493 151.584 32.8493C151.76 32.8493 151.977 32.8737 152.235 32.9229L152.353 32.9463V33.4268C152.035 33.3312 151.782 33.2834 151.596 33.2834C151.23 33.2834 151.047 33.418 151.047 33.6878C151.047 33.8615 151.185 34.0078 151.463 34.1268L151.738 34.2439C152.048 34.3771 152.267 34.5171 152.396 34.6649C152.525 34.8122 152.59 34.9966 152.59 35.2171C152.593 35.3493 152.565 35.4803 152.508 35.5997C152.451 35.7191 152.367 35.8238 152.263 35.9054C152.046 36.0849 151.767 36.1751 151.428 36.1751V36.1751ZM153.611 36.102V31.4756H154.18V34.4639L155.509 32.92H156.122L154.853 34.4054L156.385 36.1015H155.657L154.18 34.4698V36.1015H153.611V36.102ZM159.029 36.102V35.5039C158.727 35.9512 158.36 36.1751 157.928 36.1751C157.655 36.1751 157.437 36.0873 157.275 35.9127C157.114 35.738 157.033 35.502 157.033 35.2054V32.9195H157.602V35.0171C157.602 35.2556 157.636 35.4249 157.704 35.5254C157.773 35.6263 157.887 35.6766 158.047 35.6766C158.394 35.6766 158.721 35.4449 159.029 34.982V32.9195H159.599V36.101H159.029V36.102ZM161.57 36.1751C161.31 36.1751 160.994 36.1137 160.622 35.9902V35.46C160.994 35.6478 161.318 35.7415 161.593 35.7415C161.757 35.7415 161.893 35.6966 162 35.6063C162.052 35.5665 162.093 35.5154 162.121 35.457C162.149 35.3986 162.163 35.3345 162.162 35.2698C162.162 35.0722 162.011 34.9093 161.709 34.7805L161.377 34.6366C160.885 34.4298 160.639 34.1317 160.639 33.7434C160.639 33.4659 160.736 33.2478 160.93 33.0883C161.123 32.9293 161.389 32.8493 161.726 32.8493C161.901 32.8493 162.118 32.8737 162.376 32.9229L162.495 32.9463V33.4268C162.177 33.3312 161.924 33.2834 161.738 33.2834C161.372 33.2834 161.188 33.418 161.188 33.6878C161.188 33.8615 161.327 34.0078 161.605 34.1268L161.879 34.2439C162.189 34.3771 162.409 34.5171 162.538 34.6649C162.667 34.8122 162.732 34.9966 162.732 35.2171C162.734 35.3493 162.706 35.4803 162.649 35.5997C162.593 35.7191 162.509 35.8238 162.405 35.9054C162.187 36.0849 161.909 36.1751 161.57 36.1751V36.1751ZM102.244 14.4024H104.871C106.655 17.3488 108.638 20.198 110.347 23.2288V14.4141H112.488V26.5976H110.09C108.233 23.6673 106.216 20.8137 104.401 17.8V26.4902H102.244V14.4024ZM126.634 15.3117L126.1 17.2551C125.665 17.1039 125.258 16.9444 124.842 16.822C123.596 16.4551 122.342 16.3205 121.074 16.7195C118.267 17.6024 117.607 20.6761 118.821 22.7663C119.585 24.0829 120.746 24.7576 122.188 24.9585C122.934 25.0653 123.695 24.9951 124.408 24.7537V21.4044H126.619V26.4112C125.747 26.5966 124.874 26.8239 123.987 26.9615C122.211 27.2376 120.478 27.0868 118.876 26.1537C117.237 25.1985 116.275 23.7302 115.992 21.8024C115.789 20.4239 115.913 19.0727 116.552 17.8205C117.49 15.9829 118.921 14.8273 120.924 14.5307C122.395 14.3122 123.86 14.3532 125.295 14.8073C125.743 14.9498 126.179 15.139 126.634 15.3117V15.3117ZM139.054 14.4024H141.25C141.256 14.4966 141.265 14.5785 141.265 14.661C141.265 17.2171 141.277 19.7741 141.256 22.3302C141.247 22.9248 141.182 23.5172 141.061 24.0995C140.809 25.3463 139.986 26.0766 138.961 26.5937C138.395 26.8795 137.791 27.0107 137.168 27.0493C136.079 27.1161 134.99 27.1395 133.959 26.6688C133.059 26.2585 132.291 25.6746 131.887 24.6702C131.624 24.0166 131.529 23.32 131.525 22.619C131.508 19.9302 131.514 17.2415 131.512 14.5527C131.512 14.5078 131.523 14.4624 131.531 14.4039H133.699V14.7673C133.699 17.1341 133.696 19.5015 133.703 21.8683C133.704 22.2166 133.726 22.5698 133.782 22.9122C133.939 23.8585 134.459 24.4761 135.326 24.7322C135.982 24.9268 136.654 24.959 137.319 24.7941C138.355 24.5366 138.977 23.6985 139.039 22.5C139.059 22.1317 139.053 21.762 139.053 21.3927C139.055 19.1868 139.054 16.9805 139.054 14.7746V14.4024V14.4024ZM66.6341 25.7829L67.5868 23.6644C68.0224 23.878 68.4424 24.0912 68.8683 24.2912C69.6029 24.6366 70.3649 24.8732 71.1858 24.8278C71.5605 24.8073 71.9249 24.7434 72.2531 24.5317C72.8683 24.1346 72.9717 23.3298 72.4385 22.8229C72.1946 22.5917 71.9024 22.4083 71.6146 22.2332C70.6931 21.6722 69.7473 21.1502 68.8444 20.56C68.4068 20.2737 67.9829 19.9176 67.66 19.5054C66.9049 18.54 66.9195 17.4507 67.439 16.3902C67.9649 15.3171 68.921 14.7517 70.0322 14.5424C71.6917 14.2293 73.3127 14.4429 74.8566 15.1678C75.037 15.2522 75.2151 15.3415 75.4146 15.4385L74.5161 17.5034C74.2688 17.4049 74.0478 17.2941 73.8156 17.2283C73.1253 17.0322 72.4366 16.8234 71.7361 16.678C71.241 16.5756 70.7361 16.6493 70.2678 16.8698C69.5302 17.2166 69.4151 18.0532 70.0395 18.5839C70.2478 18.7605 70.4878 18.9 70.7205 19.0439C71.7541 19.6839 72.8112 20.2878 73.821 20.9644C75.0141 21.7644 75.3673 22.9585 75.1341 24.3449C74.9068 25.6951 74.0366 26.48 72.7946 26.82C71.279 27.2346 69.7663 27.1771 68.3019 26.5468C67.7502 26.3093 67.2083 26.0473 66.6341 25.7834V25.7829ZM60.2419 21.599L58.8707 17.2644L58.8063 17.2629L57.4522 21.5995H60.2419V21.599ZM56.8273 23.6015L55.8502 26.5966H53.4634L57.799 14.4024H59.8585L64.1951 26.5976H61.8083L60.8668 23.6015H56.8273V23.6015ZM91.601 21.5893H94.3853L93.018 17.2668L92.9531 17.2644L91.601 21.5893ZM89.9961 26.5976H87.6097L91.9463 14.4024H94.0049L98.3414 26.5966H95.9546L95.0131 23.6H90.9751L89.9961 26.5976ZM81.3624 26.5976V16.3634H77.8536V14.4024H87.1219V16.3454H83.6185V26.5976H81.3624Z" fill="#646464"/>
</g>
</g>
<defs>
<clipPath id="clip0_219_2603">
<rect width="161.463" height="40" fill="white" transform="translate(1.26807 0.5)"/>
</clipPath>
</defs>
</svg>
