<svg width="100" height="100" viewBox="0 0 100 100" fill="none" xmlns="http://www.w3.org/2000/svg">
<path d="M78.6088 17.0101C78.5789 16.9864 78.5476 16.9662 78.5138 16.9488C78.4801 16.9319 78.4449 16.9184 78.4082 16.9083C78.3716 16.8982 78.3344 16.8919 78.2968 16.889C78.2592 16.8866 78.2216 16.8876 78.184 16.8929C78.1463 16.8977 78.1097 16.9064 78.074 16.9184C78.0378 16.931 78.0036 16.9464 77.9713 16.9657C77.9385 16.985 77.9081 17.0072 77.8797 17.0323C77.8517 17.0578 77.8261 17.0853 77.8035 17.1157C77.7813 17.1461 77.7615 17.1784 77.7456 17.2126C77.7292 17.2469 77.7167 17.2825 77.708 17.3192C77.6988 17.3563 77.6935 17.3935 77.6921 17.4311C77.6906 17.4692 77.6925 17.5068 77.6988 17.5439C77.7046 17.5815 77.7142 17.6177 77.7278 17.6534C77.7412 17.6886 77.7577 17.7224 77.7779 17.7547C77.7982 17.7865 77.8208 17.8164 77.8469 17.8439C77.8729 17.8714 77.9018 17.896 77.9327 17.9177C89.2353 26.3243 95.8122 39.2583 95.983 53.4043C96.0114 55.7364 95.86 58.057 95.5287 60.3656C95.1974 62.6746 94.6896 64.9436 94.0057 67.1736C93.1357 68.2827 92.2701 69.3939 91.3736 70.4818C90.3647 71.7362 89.2927 72.9331 88.157 74.0736C87.8994 74.3263 87.6366 74.5713 87.3685 74.8081C87.2387 74.9239 87.1081 75.0357 86.9754 75.1452L86.7903 75.2947L86.7112 75.3579C86.7719 75.3087 86.6948 75.3579 86.6784 75.3815C86.0302 75.8729 85.3329 76.2988 84.6659 76.7641C83.9382 77.2425 83.2833 77.8058 82.7007 78.4535C82.1384 79.1069 81.7435 79.8491 81.5168 80.681C81.4107 81.0779 81.3456 81.4815 81.322 81.8919C81.2983 82.3018 81.3172 82.7103 81.3774 83.1169C81.4377 83.5234 81.5385 83.9193 81.6803 84.3051C81.8221 84.6909 82.0015 85.0584 82.219 85.4071C82.3357 85.585 82.4644 85.7533 82.598 85.9197C82.0825 86.4309 81.5544 86.9291 81.0148 87.4142C80.4747 87.8994 79.9234 88.3715 79.3602 88.8296C78.7974 89.2882 78.2235 89.7324 77.639 90.1626C77.054 90.5927 76.4594 91.0089 75.8542 91.4102C75.2495 91.8109 74.6351 92.1972 74.011 92.5685C73.387 92.9399 72.7543 93.2953 72.1134 93.6358C71.472 93.9757 70.8228 94.3003 70.1655 94.6089C69.5082 94.9176 68.8442 95.2098 68.1729 95.4857C67.5016 95.762 66.8235 96.0215 66.1397 96.264C65.4554 96.5071 64.7658 96.7333 64.0708 96.9426C63.3754 97.1519 62.6757 97.3438 61.9711 97.5189C61.2665 97.6939 60.5581 97.8516 59.8458 97.992C59.1335 98.1323 58.4183 98.2553 57.7003 98.3604C56.9817 98.466 56.2612 98.5538 55.5388 98.6237C54.8164 98.6941 54.0925 98.7467 53.3672 98.7814C52.6424 98.8161 51.9166 98.833 51.1908 98.8325H51.1136C50.3956 98.8354 49.6785 98.8209 48.9613 98.7891C48.2442 98.7573 47.5281 98.7081 46.8134 98.6415C46.0987 98.5755 45.3859 98.4916 44.6756 98.3908C43.9647 98.29 43.2568 98.1723 42.5517 98.0373C41.8467 97.9022 41.1455 97.7503 40.4477 97.5816C39.7503 97.4128 39.0568 97.2276 38.3682 97.025C37.6795 96.823 36.9962 96.604 36.3176 96.3692C35.6396 96.1338 34.9673 95.8821 34.3013 95.6144C33.6353 95.3468 32.9761 95.0632 32.3241 94.7637C31.6716 94.4643 31.0268 94.1494 30.3898 93.8185C29.7527 93.4882 29.1239 93.1424 28.5032 92.7812C27.883 92.4205 27.2715 92.0448 26.6692 91.6542C26.0669 91.2635 25.4742 90.8589 24.8916 90.4399C24.3086 90.0208 23.7361 89.5882 23.1743 89.1412C22.6125 88.6946 22.0618 88.2345 21.5221 87.7614C20.9825 87.2879 20.4544 86.8022 19.9379 86.3031C20.1077 86.008 20.2581 85.7027 20.3893 85.3883C20.5205 85.0738 20.6319 84.7527 20.723 84.4242C20.8137 84.0963 20.8841 83.7635 20.9338 83.4265C20.983 83.0894 21.0114 82.7503 21.0186 82.4099C21.0259 82.0694 21.0114 81.7294 20.9762 81.3904C20.941 81.0518 20.8846 80.7167 20.8074 80.3844C20.7298 80.0526 20.6324 79.7271 20.5142 79.4074C20.3965 79.0881 20.2586 78.7771 20.1019 78.4747C19.4725 77.2719 18.4805 76.3687 17.5445 75.4186C17.3106 75.1847 17.0979 74.9509 16.892 74.717L16.7493 74.5438L16.7353 74.5274C16.714 74.5038 16.6952 74.4734 16.6769 74.4479C16.5853 74.3263 16.499 74.2 16.4194 74.0688C16.3422 73.9473 16.2723 73.8214 16.2086 73.6922L16.1595 73.5846C16.1315 73.5118 16.1059 73.4395 16.0799 73.3647C16.0355 73.2282 16.0003 73.0894 15.9748 72.9481C15.9748 72.9201 15.9608 72.8825 15.9584 72.8497V72.8217C15.9584 72.7445 15.9584 72.6698 15.9444 72.5878C15.9444 72.4663 15.9444 72.3539 15.9608 72.2252C15.9608 72.2252 15.9608 72.2367 15.9608 72.244C15.9685 72.2117 15.9738 72.1789 15.9772 72.1456C15.9772 72.0824 16.0003 72.0192 16.0167 71.9561C16.0447 71.8398 16.078 71.7251 16.1175 71.6122C16.1387 71.5515 16.1619 71.4926 16.1831 71.4319L16.2183 71.3523C16.4416 70.8787 16.7131 70.4341 17.0323 70.0189C17.0536 69.9909 17.0767 69.9624 17.0955 69.9345L17.2079 69.7917L17.4794 69.4594C17.6525 69.2468 17.8276 69.0384 17.9988 68.8258C18.3658 68.3884 18.7019 67.9278 19.0072 67.4451C19.6061 66.4507 19.9099 65.2619 19.5405 64.1272C19.1031 62.7961 17.9448 61.8389 16.7189 61.2447C15.9979 60.912 15.2514 60.6516 14.4803 60.463C13.7086 60.2744 12.9264 60.1616 12.1331 60.124C10.507 60.0237 8.9136 60.2084 7.35352 60.6786C7.15 60.7393 6.95083 60.8073 6.75456 60.8773C6.41987 58.6878 6.2453 56.4854 6.23035 54.2699C6.20816 51.6571 6.41312 49.0616 6.84522 46.4844C7.2778 43.9068 7.93029 41.387 8.80365 38.9237C8.86586 38.7534 8.9382 38.588 9.02018 38.4264C9.10217 38.2649 9.19379 38.1091 9.29458 37.9582C9.39538 37.8077 9.50485 37.664 9.62252 37.5266C9.74067 37.3891 9.86654 37.2594 10.0001 37.1369C10.1337 37.0144 10.274 36.9006 10.4216 36.795C10.5687 36.6894 10.7216 36.5934 10.8802 36.5061C11.0394 36.4188 11.2029 36.3417 11.3707 36.2742C11.5385 36.2062 11.7102 36.1493 11.8852 36.102C13.7848 35.571 15.2142 35.5662 15.9048 36.102C16.2858 36.3899 16.471 36.8625 16.471 37.541C16.471 39.7637 15.4505 41.8953 14.365 44.1532C13.2794 46.4111 12.1543 48.7742 12.1543 51.2544C12.1543 52.6018 12.285 54.036 13.2563 54.4387C14.5897 54.9909 16.4522 53.4322 21.7396 48.1448C24.8 45.0844 27.7596 44.4011 30.1366 43.8417C32.8526 43.2104 35.1993 42.6722 35.9974 38.8957C36.7203 35.4726 35.478 32.1784 34.3828 29.2699C33.3253 26.4622 32.3289 23.8253 33.2274 21.549C34.2169 19.0408 35.3092 17.9948 36.2453 17.2999C36.3663 17.2126 36.4835 17.121 36.5969 17.0245C36.7107 16.9276 36.8201 16.8268 36.9258 16.7217C37.0314 16.6166 37.1326 16.5071 37.2296 16.3942C37.3265 16.2809 37.4186 16.1637 37.5064 16.0432C37.5937 15.9231 37.6766 15.7991 37.7543 15.6718C37.8324 15.545 37.9052 15.4148 37.9727 15.2817C38.0402 15.1491 38.102 15.0135 38.1589 14.8761C38.2158 14.7382 38.2669 14.5983 38.3127 14.4565C38.3585 14.3148 38.3986 14.171 38.4328 14.0259C38.467 13.8812 38.496 13.7346 38.5186 13.5875C38.5413 13.4404 38.5582 13.2924 38.5693 13.1438C38.5804 12.9948 38.5857 12.8463 38.5847 12.6973C38.5837 12.5478 38.5775 12.3992 38.5649 12.2507C38.5519 12.1022 38.5336 11.9546 38.5095 11.8075C38.4854 11.6604 38.455 11.5143 38.4193 11.3696C38.3836 11.225 38.3421 11.0822 38.2949 10.9404C42.1519 9.79653 46.0919 9.18117 50.1144 9.09437H50.1284C50.5967 9.09437 51.0408 9.08038 51.4975 9.09437C51.5347 9.09437 51.5713 9.09099 51.608 9.08376C51.6441 9.07652 51.6798 9.06591 51.7141 9.05145C51.7483 9.03746 51.7811 9.01962 51.8119 8.99936C51.8428 8.97863 51.8713 8.955 51.8978 8.92895C51.9238 8.90243 51.9475 8.87398 51.9682 8.84311C51.9889 8.81225 52.0063 8.77946 52.0203 8.74522C52.0347 8.71049 52.0454 8.67529 52.0526 8.63864C52.0598 8.60247 52.0637 8.56533 52.0637 8.5282C52.0637 8.49107 52.0598 8.45442 52.0526 8.41777C52.0454 8.3816 52.0347 8.34591 52.0203 8.31167C52.0063 8.27743 51.9889 8.24464 51.9682 8.21377C51.9475 8.18291 51.9238 8.15446 51.8978 8.12793C51.8713 8.10189 51.8428 8.07826 51.8119 8.05752C51.7811 8.03679 51.7483 8.01942 51.7141 8.00544C51.6798 7.99097 51.6441 7.98036 51.608 7.97313C51.5713 7.96589 51.5347 7.96204 51.4975 7.96204H50.9965C50.2118 7.96252 49.4277 7.98326 48.6445 8.02376C47.8608 8.06427 47.0786 8.12504 46.2983 8.20557C45.5181 8.28611 44.7397 8.3869 43.9647 8.50698C43.1893 8.62755 42.4177 8.76788 41.6494 8.92751C40.8812 9.08762 40.1178 9.26701 39.3587 9.46618C38.5997 9.66487 37.8464 9.88333 37.0984 10.1211C36.3509 10.3584 35.6097 10.6149 34.8747 10.8903C34.1403 11.1661 33.413 11.4598 32.6935 11.7728C31.974 12.0853 31.2627 12.4161 30.56 12.7653C29.8574 13.1144 29.1639 13.4814 28.4801 13.8658C27.7962 14.2506 27.1225 14.6523 26.4589 15.0714C25.7958 15.4905 25.1434 15.926 24.5024 16.3783C23.8615 16.8307 23.2322 17.2994 22.6154 17.7841C21.9981 18.2688 21.3938 18.7688 20.8026 19.2844C20.2109 19.7999 19.6331 20.3299 19.0684 20.8753C18.5042 21.4203 17.9539 21.9792 17.4181 22.5526C17.3926 22.5796 17.3694 22.609 17.3492 22.6409C17.3294 22.6727 17.3125 22.706 17.299 22.7407C17.2855 22.7759 17.2759 22.8116 17.2696 22.8487C17.2629 22.8858 17.2604 22.923 17.2614 22.9601C17.2624 22.9977 17.2672 23.0349 17.2759 23.0715C17.2841 23.1077 17.2961 23.1434 17.3116 23.1771C17.327 23.2114 17.3458 23.2437 17.3675 23.2741C17.3892 23.3049 17.4138 23.3329 17.4413 23.3584C17.4688 23.384 17.4987 23.4067 17.5305 23.426C17.5623 23.4457 17.5956 23.4621 17.6308 23.4752C17.666 23.4882 17.7022 23.4973 17.7393 23.5036C17.7765 23.5094 17.8136 23.5113 17.8512 23.5099C17.8883 23.5084 17.9255 23.5031 17.9616 23.494C17.9983 23.4853 18.0335 23.4727 18.0673 23.4568C18.1015 23.4409 18.1333 23.4221 18.1637 23.3999C18.1936 23.3777 18.2216 23.3527 18.2466 23.3247C19.5391 21.9397 20.914 20.6414 22.3709 19.43C23.8282 18.2191 25.356 17.1051 26.9542 16.0875C28.5529 15.0704 30.2089 14.158 31.9229 13.3507C33.6373 12.5434 35.3951 11.848 37.1978 11.2635C37.2749 11.4912 37.3337 11.7231 37.3738 11.9599C37.4143 12.1972 37.4355 12.4354 37.4374 12.6761C37.4398 12.9162 37.423 13.1549 37.3868 13.3927C37.3506 13.63 37.2961 13.8634 37.2228 14.0924C37.1495 14.321 37.0589 14.5429 36.9504 14.757C36.8414 14.9711 36.7165 15.1756 36.5752 15.3699C36.4339 15.5643 36.2781 15.7466 36.1079 15.9158C35.9376 16.0851 35.7548 16.2404 35.56 16.3807C34.4952 17.1692 33.2602 18.3483 32.1625 21.1232C31.105 23.8045 32.1765 26.6493 33.3113 29.6586C34.4041 32.555 35.534 35.5498 34.8791 38.6502C34.2309 41.7106 32.5884 42.094 29.8699 42.7257C27.3526 43.3131 24.2174 44.0408 20.9299 47.3303C18.3798 49.8785 14.5314 53.725 13.6773 53.3787C13.6093 53.3507 13.2751 53.1164 13.2751 51.2423C13.2751 49.0196 14.2951 46.8881 15.3806 44.6302C16.4662 42.3727 17.5937 40.0092 17.5937 37.5295C17.5937 36.4859 17.2522 35.6974 16.5809 35.1896C15.5726 34.4247 13.8856 34.3635 11.5694 35.0116C11.3514 35.0719 11.1378 35.1447 10.9285 35.2306C10.7196 35.3159 10.5161 35.4138 10.3184 35.5238C10.1212 35.6337 9.93068 35.7552 9.7479 35.8879C9.56465 36.0205 9.39007 36.1637 9.22418 36.3171C9.05828 36.4704 8.90251 36.6334 8.75591 36.8056C8.6093 36.9778 8.47379 37.1581 8.34889 37.3467C8.22398 37.5352 8.11065 37.7301 8.00938 37.9321C7.90762 38.1342 7.81841 38.3416 7.74173 38.5542C7.43309 39.418 7.15049 40.2904 6.89441 41.1714C6.63785 42.052 6.4083 42.9399 6.20479 43.8344C6.00176 44.729 5.82526 45.6289 5.67624 46.5341C5.52674 47.4393 5.40473 48.3478 5.30973 49.2603C5.21521 50.1732 5.14769 51.0875 5.10766 52.0038C5.06715 52.9206 5.05461 53.8373 5.06956 54.7546C5.08451 55.6718 5.12647 56.5881 5.1964 57.5025C5.26584 58.4173 5.36277 59.3292 5.4872 60.2383C5.61162 61.1473 5.76304 62.0515 5.94148 62.9514C6.11991 63.8513 6.32487 64.7449 6.55683 65.6323C6.7888 66.5201 7.04728 67.3997 7.33181 68.2721C7.61634 69.144 7.92691 70.0068 8.26304 70.8604C8.59966 71.714 8.96135 72.5565 9.34811 73.3884C9.73488 74.2202 10.1462 75.0401 10.5822 75.8469C11.0177 76.6542 11.4777 77.448 11.961 78.2273C12.4442 79.0071 12.9505 79.7715 13.4796 80.5209C14.0091 81.2703 14.5603 82.0033 15.1332 82.7195C15.7061 83.4361 16.3003 84.1344 16.9151 84.8153C17.53 85.4958 18.1647 86.1579 18.8196 86.8008C19.474 87.4431 20.1472 88.0657 20.8388 88.6685C21.5308 89.2709 22.2402 89.852 22.9665 90.4119C23.6932 90.9718 24.4359 91.5095 25.195 92.025C25.9535 92.5406 26.7271 93.0329 27.5156 93.5022C28.304 93.9709 29.1055 94.416 29.9206 94.8375C30.7356 95.2585 31.5621 95.6549 32.4013 96.0263C33.2399 96.3981 34.0887 96.7444 34.9485 97.0651C35.8079 97.3858 36.676 97.6804 37.5532 97.949C38.4304 98.2181 39.3148 98.4602 40.206 98.6758C41.0977 98.8918 41.9952 99.0804 42.898 99.2424C43.8008 99.4045 44.7079 99.5395 45.6189 99.647C46.5298 99.7551 47.4432 99.8351 48.359 99.8882C49.2748 99.9412 50.1916 99.9668 51.1088 99.9648H51.1908C51.9489 99.9634 52.7065 99.9436 53.4632 99.905C54.2203 99.866 54.976 99.8086 55.7303 99.7324C56.4845 99.6562 57.2363 99.5617 57.9858 99.4483C58.7352 99.335 59.4812 99.2034 60.2244 99.0534C60.9675 98.9029 61.7063 98.7346 62.4408 98.548C63.1758 98.3614 63.9054 98.1564 64.6298 97.9336C65.3546 97.7113 66.0731 97.4706 66.7854 97.2121C67.4982 96.9541 68.2042 96.6783 68.903 96.3851C69.6023 96.0919 70.2938 95.7818 70.9772 95.4543C71.661 95.1274 72.3362 94.783 73.0031 94.4223C73.6696 94.0616 74.3269 93.6849 74.9751 93.2914C75.6232 92.8984 76.2612 92.4894 76.8891 92.0646C77.517 91.6402 78.1338 91.1999 78.74 90.7446C79.3462 90.2894 79.9408 89.8197 80.5234 89.335C81.1064 88.8504 81.6769 88.3517 82.2354 87.8391C82.7933 87.3264 83.3388 86.7998 83.8712 86.2602C84.4031 85.7205 84.922 85.1679 85.4269 84.6027C85.9318 84.037 86.4223 83.4597 86.8988 82.8699C87.3752 82.2801 87.8367 81.6793 88.2833 81.0668C88.7299 80.4543 89.1615 79.8313 89.5772 79.1976C89.9934 78.5639 90.3932 77.9201 90.777 77.2666C91.1614 76.6132 91.5289 75.9506 91.8804 75.2788C92.2315 74.607 92.5662 73.927 92.884 73.2389C93.2018 72.5507 93.5023 71.8548 93.7858 71.1517C94.0689 70.4485 94.3346 69.7391 94.583 69.023C94.8313 68.3064 95.0619 67.5844 95.2745 66.8572C95.4867 66.1295 95.6815 65.3969 95.8581 64.6596C96.0341 63.9222 96.1923 63.1815 96.3321 62.4364C96.472 61.6913 96.593 60.9433 96.6957 60.192C96.7989 59.4411 96.8828 58.6878 96.9484 57.9326C97.014 57.1774 97.0608 56.4212 97.0892 55.6636C97.1172 54.906 97.1269 54.1484 97.1177 53.3903C96.9422 38.8884 90.1969 25.627 78.6088 17.0101ZM6.94601 62.0265C7.5469 61.8032 8.16032 61.6262 8.78774 61.495C8.97244 61.4579 9.15955 61.4227 9.34667 61.3923L9.64132 61.3479H9.65772L9.86364 61.3219C10.2403 61.2824 10.6193 61.2563 11.0008 61.2472C11.3823 61.238 11.7941 61.2472 12.1915 61.2727C12.381 61.2848 12.5681 61.3012 12.7576 61.3219L12.9776 61.3479L13.0692 61.3619L13.2235 61.3851C13.9864 61.5032 14.732 61.6903 15.4602 61.9469L15.6941 62.0356L15.8089 62.0824C15.9632 62.1456 16.1151 62.2179 16.2627 62.2932C16.5462 62.4345 16.8182 62.595 17.0791 62.7749C17.1399 62.8193 17.2079 62.8617 17.2662 62.9104L17.3646 62.99C17.4934 63.098 17.6173 63.2099 17.734 63.3295C17.8319 63.4236 17.9226 63.5239 18.0055 63.6314C17.9915 63.6126 17.9824 63.6034 18.0055 63.6521L18.0759 63.7505C18.1203 63.8161 18.1647 63.8841 18.2047 63.954C18.2462 64.0225 18.2847 64.0924 18.319 64.1648C18.332 64.1884 18.3441 64.2125 18.3542 64.2371C18.3547 64.2434 18.3547 64.2497 18.3542 64.2559C18.426 64.3987 18.4719 64.5491 18.4921 64.7078C18.5119 64.7671 18.5244 64.8279 18.5297 64.8901V64.9229C18.5321 64.9533 18.5321 64.9837 18.5297 65.014C18.5389 65.1413 18.5389 65.2682 18.5297 65.3955C18.5297 65.4471 18.4854 65.6646 18.5297 65.4702C18.5182 65.5243 18.5133 65.5778 18.5018 65.6294C18.4873 65.7557 18.4651 65.8802 18.4362 66.0036C18.4034 66.1068 18.3634 66.2052 18.3262 66.3055L18.291 66.3827L18.2023 66.5606C18.0817 66.7892 17.9486 67.0101 17.802 67.2228C17.734 67.3235 17.6641 67.4214 17.5913 67.5198C17.5541 67.5714 17.5165 67.623 17.477 67.6722C17.4533 67.6978 17.4345 67.7281 17.4114 67.7561C17.0815 68.1752 16.7353 68.5822 16.4006 68.9984C15.7317 69.8361 15.0532 70.7606 14.8636 71.8413C14.8053 72.1504 14.786 72.4619 14.8063 72.7754C14.8265 73.0894 14.8853 73.3956 14.9828 73.6946C15.2133 74.3259 15.548 74.8959 15.9863 75.4047C16.3967 75.8855 16.8303 76.3441 17.2874 76.7805C17.5213 77.0144 17.7412 77.23 17.9587 77.4615C18.0595 77.569 18.1579 77.6766 18.2534 77.7865L18.4125 77.976L18.4666 78.0416L18.5061 78.0908C18.7009 78.3517 18.8774 78.6247 19.0351 78.9097C19.1075 79.0408 19.1755 79.1764 19.2411 79.3124C19.2738 79.3847 19.3066 79.4551 19.337 79.5274L19.4002 79.689C19.515 79.9947 19.6105 80.3068 19.6857 80.6246C19.718 80.7721 19.7489 80.9221 19.7768 81.0716C19.7768 81.144 19.8048 81.2216 19.8116 81.3055C19.8116 81.3643 19.8236 81.4203 19.8304 81.4786C19.8617 81.7955 19.8743 82.1128 19.868 82.4311C19.868 82.5902 19.8564 82.7494 19.8424 82.8989C19.8424 82.9857 19.826 83.072 19.8164 83.1588C19.8164 83.1588 19.8164 83.2196 19.8164 83.236C19.8164 83.2524 19.8164 83.2852 19.8048 83.3083C19.7556 83.6247 19.6862 83.9367 19.5965 84.2444C19.5521 84.3963 19.5029 84.5462 19.4494 84.6957L19.3553 84.9296L19.2922 85.0724C19.229 85.206 19.1639 85.3347 19.0935 85.4635C18.3084 84.6687 17.5537 83.8455 16.8303 82.9939C16.1074 82.1427 15.4168 81.265 14.7595 80.3617C14.1026 79.458 13.4801 78.5311 12.8927 77.5806C12.3058 76.6301 11.755 75.6588 11.241 74.6668C10.7264 73.6748 10.2504 72.665 9.81252 71.6373C9.37464 70.6096 8.97582 69.5665 8.61654 68.5089C8.25726 67.4509 7.93801 66.3807 7.65926 65.299C7.38052 64.2169 7.14277 63.126 6.94601 62.0265ZM82.8107 84.104L82.8271 84.1436C82.8189 84.1301 82.8136 84.1151 82.8107 84.0992V84.104ZM83.4005 85.1192L83.3257 85.0164C83.2708 84.9417 83.2197 84.8636 83.1709 84.7826C83.0711 84.6258 82.9805 84.4633 82.8999 84.296L82.8367 84.16C82.7991 84.0664 82.7639 83.9728 82.7311 83.8793C82.6708 83.7033 82.6192 83.5248 82.5768 83.3435C82.558 83.2591 82.5416 83.1752 82.5252 83.0908C82.5252 83.0416 82.5088 82.9948 82.5021 82.9456C82.4948 82.8965 82.5021 82.9085 82.5021 82.9013C82.4808 82.7166 82.4693 82.5295 82.4644 82.3424C82.4596 82.1548 82.4644 81.9701 82.4832 81.7853C82.4832 81.7362 82.4832 81.6846 82.4996 81.6354V81.6146C82.5276 81.5182 82.544 81.4198 82.5488 81.3195C82.586 81.1372 82.6327 80.9568 82.6868 80.7794C82.7123 80.6998 82.7408 80.6178 82.7711 80.545C82.8015 80.4727 82.8083 80.4514 82.8247 80.4047C82.8411 80.3579 82.8083 80.4399 82.8083 80.4399C82.8175 80.4129 82.829 80.3873 82.8435 80.3627C82.9202 80.1934 83.006 80.029 83.101 79.8689C83.1478 79.7893 83.1994 79.7097 83.2505 79.635L83.3301 79.5226L83.3865 79.4455C83.6358 79.131 83.9122 78.8417 84.2145 78.5774C84.3664 78.4443 84.5232 78.3155 84.6823 78.1892L84.7151 78.1631L84.8463 78.0652L85.0942 77.8849C85.7635 77.4171 86.4604 76.9797 87.1225 76.4974C87.6877 76.0793 88.223 75.627 88.7299 75.1404C89.8448 74.0553 90.8937 72.9095 91.8771 71.7034C92.2209 71.2915 92.5575 70.8729 92.8946 70.4563C92.353 71.8186 91.7459 73.1511 91.0736 74.4537C90.4014 75.7562 89.6664 77.0226 88.8697 78.2533C88.0726 79.4836 87.217 80.6718 86.3037 81.8181C85.3898 82.9649 84.4219 84.0635 83.4005 85.1148V85.1192Z" fill="#424242"/>
<path d="M49.5039 43.9424C49.5845 44.1917 49.6872 44.4314 49.8121 44.6614C49.9375 44.8915 50.0826 45.108 50.2481 45.3106C50.4139 45.5136 50.5967 45.6997 50.7969 45.8685C50.997 46.0373 51.2111 46.1858 51.4387 46.3151C51.6953 46.4511 51.9625 46.5601 52.2407 46.643C52.519 46.7255 52.8025 46.78 53.0914 46.806C53.3808 46.8321 53.6692 46.8297 53.958 46.7978C54.2464 46.7665 54.529 46.7067 54.8053 46.6189C55.3455 46.454 55.862 46.2331 56.3548 45.9573C56.8472 45.6809 57.3049 45.3559 57.7278 44.9812C57.9197 45.1847 58.1184 45.3863 58.3243 45.5777C58.7487 45.9958 59.2223 46.3474 59.7451 46.6324C60.2678 46.9174 60.82 47.1253 61.4011 47.2555C62.7018 47.513 64.0212 47.377 65.3315 47.2859C66.5169 47.1836 67.696 47.2328 68.8688 47.4334C71.1339 47.866 73.2443 48.9284 74.7557 50.6877C75.1149 51.1 75.4308 51.5432 75.7033 52.0177C75.9753 52.4923 76.1986 52.989 76.3722 53.5074C76.5463 54.0258 76.6683 54.5563 76.7372 55.0988C76.8067 55.6419 76.8221 56.1858 76.784 56.7313C76.7372 57.2357 76.6384 57.7291 76.4869 58.2123C76.3461 58.6834 76.1571 59.1339 75.9208 59.565C75.4352 60.4716 74.8174 61.2775 74.0675 61.9816C73.3113 62.7136 72.4741 63.3372 71.5574 63.8537C70.5803 64.4102 69.5531 64.8505 68.4758 65.1731C65.9353 65.9616 63.2795 66.2519 60.6454 66.5606C58.1792 66.8485 55.7038 67.1619 53.3224 67.8921C51.0505 68.5937 48.8654 69.6653 47.1409 71.3267C45.3416 73.058 44.1722 75.3323 42.3309 77.024C41.934 77.4079 41.4985 77.7411 41.0245 78.0237C40.55 78.3063 40.0499 78.5306 39.5232 78.6969C39.0034 78.8537 38.4729 78.9062 37.9323 78.8537C37.885 78.8522 37.8382 78.8474 37.7919 78.8397L37.6 78.8021C37.4626 78.7717 37.3275 78.7317 37.1954 78.683C36.988 78.5961 36.8014 78.4765 36.636 78.3246C36.554 78.2504 36.4846 78.165 36.4277 78.0695C36.3707 77.9774 36.3201 77.8814 36.2757 77.7821C36.2266 77.6533 36.1875 77.5212 36.1586 77.3867C36.1325 77.2786 36.1152 77.1696 36.1074 77.0587C36.0828 76.7853 36.0828 76.5114 36.1074 76.2379C36.1074 76.1791 36.119 76.1207 36.1262 76.0624C36.1262 76.046 36.1262 75.9828 36.1426 75.964C36.161 75.8444 36.1846 75.7301 36.2126 75.6081C36.2651 75.3708 36.3302 75.1365 36.4093 74.9064C36.4489 74.7941 36.4908 74.6725 36.5357 74.5717C36.5362 74.5602 36.5362 74.5486 36.5357 74.5365L36.5521 74.5037C36.5776 74.4454 36.6032 74.3846 36.6312 74.3263C36.8376 73.8884 37.0763 73.4683 37.3473 73.0676C37.4828 72.8617 37.6256 72.6601 37.7755 72.4638C37.8995 72.2955 38.0094 72.1479 38.185 71.9396C38.5052 71.5442 38.8399 71.1603 39.1794 70.7697C39.8598 69.9976 40.5572 69.2371 41.1938 68.4303C41.5444 68.0112 41.8646 67.5699 42.1534 67.106C42.4428 66.6425 42.6984 66.1612 42.9202 65.6616C43.1421 65.162 43.3277 64.6499 43.4777 64.1242C43.6282 63.599 43.741 63.0657 43.8162 62.5246C44.1697 60.2618 44.0641 57.9692 43.9754 55.6901C43.931 54.5529 43.891 53.4158 43.9146 52.2791C43.9286 51.7197 43.9542 51.1627 44.0082 50.6062C44.0559 50.0868 44.1341 49.5717 44.2421 49.062C44.4379 48.0377 44.774 47.0621 45.2505 46.1347C45.2683 46.1024 45.2828 46.0687 45.2944 46.0335C45.3054 45.9982 45.3132 45.9621 45.318 45.9254C45.3223 45.8888 45.3233 45.8516 45.3209 45.815C45.3185 45.7779 45.3127 45.7417 45.303 45.706C45.2939 45.6703 45.2809 45.6356 45.2649 45.6023C45.249 45.569 45.2302 45.5372 45.2085 45.5073C45.1863 45.4774 45.1617 45.4504 45.1347 45.4248C45.1077 45.3998 45.0783 45.3776 45.047 45.3578C45.0146 45.3395 44.9809 45.3245 44.9462 45.313C44.911 45.3014 44.8748 45.2927 44.8381 45.2879C44.8015 45.2831 44.7644 45.2821 44.7277 45.2845C44.6906 45.2869 44.6544 45.2927 44.6182 45.3024C44.5825 45.3115 44.5478 45.3245 44.5146 45.3405C44.4813 45.3564 44.4499 45.3757 44.42 45.3978C44.3906 45.42 44.3631 45.4451 44.3385 45.4726C44.3135 45.5001 44.2917 45.53 44.2725 45.5613C43.1753 47.6533 42.8358 50.0072 42.7891 52.3466C42.7423 54.6865 42.967 57.0264 42.939 59.3658C42.9443 60.4948 42.8517 61.6155 42.6608 62.7281C42.464 63.8161 42.11 64.8505 41.5984 65.8304C40.6112 67.6789 39.1254 69.0943 37.7519 70.7113C36.3789 72.3278 35.1574 74.1155 34.9703 76.2823C34.8652 77.5246 35.2321 78.8725 36.3741 79.5298C37.4597 80.1543 38.8775 80.0911 40.0354 79.7121C42.5204 78.9004 44.1673 76.8108 45.6787 74.7989C46.4204 73.7452 47.2557 72.772 48.1845 71.8788C49.0607 71.1 50.0277 70.4581 51.0857 69.9532C53.1912 68.9168 55.615 68.3738 57.9709 68.0203C60.6946 67.6133 63.4507 67.4334 66.1595 66.902C68.6093 66.4202 71.024 65.6293 73.0967 64.2067C74.9683 62.9316 76.5313 61.2215 77.3666 59.1015C78.251 56.8576 78.0519 54.3658 77.0555 52.1971C76.7946 51.6483 76.4874 51.1265 76.1339 50.6322C75.7804 50.1379 75.386 49.6788 74.9505 49.2549C74.5155 48.831 74.0463 48.4486 73.5428 48.1081C73.0398 47.7672 72.5103 47.4739 71.9552 47.2275C70.78 46.6999 69.5531 46.3566 68.2747 46.1979C66.9996 46.0339 65.7385 46.1207 64.461 46.2119C63.7921 46.2698 63.1223 46.2828 62.4515 46.2519C62.1491 46.236 61.8506 46.195 61.5554 46.128C61.4127 46.0971 61.2724 46.06 61.132 46.0156L60.8981 45.9336L60.7414 45.8705C59.9018 45.4678 59.1774 44.9146 58.5679 44.2115C59.2835 43.5093 59.9548 42.7609 60.6406 42.0568C61.4233 41.1974 62.328 40.4957 63.3547 39.9508C63.3861 39.932 63.416 39.9098 63.4435 39.8852C63.4709 39.8601 63.496 39.8331 63.5182 39.8032C63.5404 39.7738 63.5597 39.742 63.5756 39.7087C63.5915 39.6754 63.6045 39.6407 63.6142 39.605C63.6233 39.5693 63.6291 39.5327 63.6315 39.496C63.6339 39.4589 63.633 39.4218 63.6282 39.3851C63.6233 39.3485 63.6151 39.3128 63.6031 39.2776C63.5915 39.2424 63.5766 39.2086 63.5582 39.1763C63.5389 39.1449 63.5163 39.1155 63.4917 39.088C63.4666 39.0606 63.4391 39.036 63.4092 39.0138C63.3793 38.9916 63.348 38.9728 63.3147 38.9569C63.2809 38.9405 63.2467 38.9279 63.2105 38.9188C63.1748 38.9091 63.1382 38.9033 63.1015 38.9009C63.0644 38.8985 63.0273 38.8995 62.9906 38.9043C62.954 38.9086 62.9178 38.9168 62.8826 38.9284C62.8474 38.94 62.8136 38.9549 62.7813 38.9728C60.7457 39.9836 59.4099 41.846 57.8165 43.395C57.219 42.6683 56.554 42.01 55.821 41.4202C55.4019 41.1106 54.9505 40.8598 54.4663 40.6679C53.9821 40.476 53.4816 40.3491 52.9641 40.2879C52.7196 40.2508 52.4737 40.2411 52.2267 40.2585C51.9798 40.2754 51.7377 40.3197 51.5005 40.3906C51.2632 40.461 51.0365 40.557 50.8205 40.678C50.6044 40.7986 50.4043 40.9418 50.2201 41.1068C50.1285 41.1965 50.0431 41.2924 49.9645 41.3937C49.8859 41.4955 49.815 41.602 49.7509 41.7134C49.6872 41.8243 49.6308 41.9396 49.583 42.0587C49.5348 42.1778 49.4948 42.2994 49.4634 42.4238C49.4321 42.5482 49.4094 42.6746 49.3954 42.8019C49.381 42.9297 49.3757 43.0575 49.379 43.1857C49.3824 43.3145 49.3949 43.4418 49.4157 43.5687C49.4364 43.695 49.4658 43.8199 49.5039 43.9424ZM51.0481 44.4994C51.0013 44.443 51.0389 44.4898 51.0481 44.4994V44.4994ZM50.5172 42.8496C50.5172 42.8824 50.5172 42.8848 50.5172 42.8496V42.8496ZM50.5172 42.9085C50.5181 42.8872 50.5181 42.866 50.5172 42.8453C50.5379 42.7469 50.5591 42.6509 50.5895 42.555C50.5895 42.527 50.6107 42.499 50.6199 42.4686C50.6295 42.4378 50.6691 42.3678 50.697 42.3162L50.779 42.1807L50.833 42.106C50.8991 42.0221 50.9719 41.9439 51.0505 41.8716C51.0761 41.8485 51.1041 41.8224 51.1349 41.7993L51.2 41.7501C51.2931 41.6884 51.39 41.6329 51.4903 41.5842C51.5116 41.5842 51.5535 41.5557 51.5651 41.5514L51.6659 41.5162C51.7744 41.4815 51.8843 41.4525 51.9957 41.4294L52.1033 41.4111H52.1877C52.3058 41.4 52.4245 41.3961 52.5431 41.399C52.6463 41.399 52.749 41.399 52.8522 41.4154H52.9458L53.1208 41.4458C53.3518 41.4906 53.579 41.5504 53.8018 41.6261C53.9002 41.6589 53.9937 41.6941 54.0897 41.7337L54.2045 41.7829L54.38 41.8649C54.5927 41.9724 54.7986 42.0915 54.9973 42.2227C55.0817 42.2791 55.1637 42.3375 55.2456 42.3982L55.3368 42.4706L55.4771 42.5926C55.6806 42.7749 55.8769 42.9668 56.0664 43.1655C56.3756 43.4838 56.6726 43.8161 56.9673 44.1483C56.2666 44.756 55.4766 45.2074 54.5975 45.503C54.0747 45.6674 53.5404 45.7258 52.9945 45.6785H52.9313L52.7746 45.6481C52.6516 45.6202 52.5306 45.5845 52.4119 45.5406L52.3232 45.5078L52.2017 45.4514C52.0874 45.3949 51.9769 45.3327 51.8694 45.2643C51.7826 45.2107 51.6987 45.1519 51.6167 45.0911C51.6003 45.0747 51.5371 45.0236 51.5255 45.014C51.4764 44.972 51.4296 44.9296 51.3852 44.8852C51.3027 44.8114 51.2246 44.7338 51.1513 44.6513C51.1113 44.6069 51.0737 44.5602 51.0365 44.5134L50.9734 44.429C50.915 44.3403 50.8562 44.251 50.8051 44.1599C50.7742 44.1064 50.7462 44.0524 50.7183 43.9988C50.7183 43.98 50.683 43.9193 50.6715 43.898C50.5953 43.709 50.5408 43.5142 50.5075 43.3131C50.5075 43.2943 50.5075 43.2615 50.5075 43.2407C50.5075 43.2195 50.5075 43.1423 50.5075 43.0932C50.5075 43.044 50.5099 42.9644 50.5123 42.9085H50.5172Z" fill="#424242"/>
<path d="M70.8178 89.5249C70.9648 89.5249 71.1124 89.5249 71.2576 89.5249C71.3781 89.5211 71.4982 89.5288 71.6178 89.5486H71.653L71.7302 89.5625C71.8073 89.5789 71.8821 89.5977 71.9641 89.6185C72.0253 89.6344 72.0851 89.6542 72.1439 89.6768H72.1676L72.2144 89.6981C72.2693 89.7236 72.3224 89.7525 72.3735 89.7849L72.4482 89.834C72.4936 89.8721 72.5365 89.9127 72.577 89.9556L72.6238 90.0072C72.6542 90.054 72.6846 90.0983 72.7106 90.1475C72.7362 90.1967 72.7386 90.1986 72.7501 90.2247C72.7506 90.23 72.7506 90.2353 72.7501 90.2411C72.7607 90.2768 72.7752 90.311 72.7921 90.3438C72.8095 90.3766 72.8302 90.4074 72.8533 90.4364C72.8765 90.4653 72.9021 90.4918 72.9305 90.516C72.959 90.5401 72.9893 90.5613 73.0216 90.5796C73.054 90.5979 73.0877 90.6129 73.1234 90.6245C73.1586 90.6365 73.1943 90.6447 73.2314 90.6495C73.2681 90.6544 73.3052 90.6558 73.3423 90.6534C73.3795 90.6515 73.4161 90.6457 73.4518 90.6365C73.488 90.6259 73.5227 90.6124 73.5555 90.5955C73.5888 90.5782 73.6201 90.5584 73.6495 90.5352C73.679 90.5121 73.7055 90.4861 73.7301 90.4581C73.7542 90.4296 73.7754 90.3992 73.7937 90.3665C73.8121 90.3341 73.827 90.2999 73.8391 90.2647C73.8506 90.229 73.8588 90.1928 73.8632 90.1557C73.868 90.1186 73.869 90.0814 73.8661 90.0443C73.8637 90.0072 73.8574 89.9705 73.8473 89.9344C73.7908 89.7781 73.718 89.6301 73.6288 89.4897C73.5396 89.3494 73.4364 89.2206 73.3187 89.1034C73.201 88.9862 73.0718 88.883 72.9315 88.7943C72.7906 88.7056 72.6421 88.6332 72.4859 88.5773C71.9014 88.3743 71.3015 88.3063 70.6866 88.3738C70.0616 88.4509 69.4457 88.573 68.8381 88.7388C68.691 88.7716 68.5434 88.8044 68.3939 88.83C68.3211 88.844 68.2464 88.858 68.1716 88.8676L68.0824 88.8816H68.0077C67.7067 88.9289 67.4044 88.9457 67.1001 88.9332H67.0041C66.9361 88.9211 66.8705 88.9047 66.8049 88.8883C66.7403 88.872 66.6762 88.8517 66.6135 88.8276L66.5783 88.8136H66.5503L66.4987 88.7832C66.4403 88.7528 66.3863 88.7152 66.3304 88.6829L66.2696 88.6313C66.2204 88.5845 66.1756 88.5329 66.1288 88.4861L66.0492 88.3622C66.0237 88.3178 66.0005 88.2711 65.9769 88.2243V88.2103C65.9422 88.1245 65.9132 88.0372 65.8906 87.948C65.8414 87.7724 65.8062 87.5901 65.7734 87.4098C65.7247 87.0568 65.647 86.7105 65.5395 86.371C65.4276 86.0744 65.2863 85.7928 65.1161 85.5251C64.9458 85.2579 64.75 85.011 64.5287 84.7844C64.3069 84.5577 64.0648 84.3556 63.8015 84.1791C63.5381 84.0031 63.2599 83.8551 62.9657 83.7364C62.6643 83.6057 62.3542 83.5006 62.0359 83.4201C61.7176 83.3395 61.3945 83.2855 61.0676 83.2571C60.7401 83.2291 60.4127 83.2272 60.0852 83.2518C59.7578 83.2764 59.4342 83.3275 59.1149 83.4042C57.6151 83.7716 56.2933 84.6325 55.1373 85.6457C54.0286 86.6237 53.1065 87.77 52.1285 88.8724C51.6482 89.4222 51.1331 89.9387 50.5843 90.4209L50.3881 90.5849L50.2829 90.6693L50.2593 90.6857C50.1098 90.7976 49.955 90.9196 49.7915 91.0107C49.4824 91.2128 49.1588 91.3874 48.8203 91.535H48.8043L48.7716 91.5465L48.6356 91.5981L48.3337 91.7033C48.1398 91.7664 47.943 91.8204 47.7468 91.8692C47.3397 91.9699 46.9279 92.0447 46.5161 92.1035C45.7146 92.213 44.9208 92.363 44.1342 92.5525C42.8172 92.9103 41.4693 93.6361 40.758 94.8456C40.58 95.148 40.4512 95.4701 40.3722 95.8121C40.3625 95.8477 40.3562 95.8839 40.3533 95.921C40.3509 95.9582 40.3519 95.9953 40.3562 96.032C40.3611 96.0691 40.3693 96.1053 40.3808 96.1405C40.3924 96.1757 40.4078 96.2094 40.4262 96.2417C40.4445 96.2741 40.4657 96.3044 40.4898 96.3324C40.5144 96.3604 40.5409 96.3859 40.5704 96.4086C40.5998 96.4318 40.6311 96.4515 40.6644 96.4679C40.6977 96.4848 40.7319 96.4983 40.7676 96.5079C40.8038 96.5181 40.8399 96.5243 40.8771 96.5268C40.9142 96.5297 40.9513 96.5287 40.988 96.5243C41.0251 96.5195 41.0613 96.5113 41.0965 96.4998C41.1317 96.4882 41.1655 96.4732 41.1978 96.4549C41.2301 96.4366 41.2605 96.4154 41.2884 96.3912C41.3169 96.3666 41.3424 96.3401 41.3651 96.3107C41.3883 96.2818 41.408 96.2504 41.4244 96.2172C41.4413 96.1839 41.4548 96.1496 41.4649 96.1135C41.4968 95.9804 41.5363 95.8492 41.5841 95.7204C41.5841 95.7344 41.6357 95.6013 41.6496 95.5733C41.6916 95.4938 41.736 95.4156 41.7827 95.3394C41.8228 95.2763 41.8647 95.215 41.9067 95.1543L41.9819 95.0631C42.0846 94.944 42.1946 94.8316 42.3118 94.726C42.3677 94.6749 42.4265 94.6257 42.4849 94.5765L42.5317 94.5413L42.59 94.497C42.7236 94.4034 42.8615 94.3142 43.0019 94.2327C43.1422 94.1507 43.2777 94.0803 43.4185 94.0128L43.6124 93.926L43.6524 93.9072L43.8068 93.8488C45.2477 93.3082 46.8204 93.2966 48.2965 92.8896C49.0566 92.6832 49.7655 92.3635 50.4233 91.9304C51.041 91.5108 51.6106 91.0334 52.1309 90.4981C53.1417 89.4806 54.0026 88.3342 55.0109 87.307C55.2685 87.0404 55.5327 86.7828 55.8091 86.535C55.933 86.4226 56.0594 86.315 56.1857 86.207L56.3892 86.0387L56.4919 85.9567L56.518 85.936L56.5435 85.9196C57.1145 85.4807 57.7275 85.1128 58.3824 84.8152L58.4456 84.7892L58.5324 84.7545L58.7662 84.6653C58.937 84.6045 59.1101 84.5529 59.2856 84.5061C59.4612 84.4593 59.5899 84.4314 59.7534 84.4034C59.7862 84.4034 60.0109 84.347 59.8542 84.387C59.9376 84.3701 60.0216 84.3614 60.1069 84.3614C60.3924 84.3388 60.6779 84.3388 60.9629 84.3614L61.1761 84.3822H61.1949L61.2788 84.3937C61.4355 84.4222 61.5879 84.4526 61.7471 84.4921C61.9062 84.5322 62.0205 84.5669 62.1541 84.6137L62.3552 84.6865L62.4323 84.7169H62.4463L62.4724 84.7284C62.7328 84.8471 62.9821 84.985 63.2208 85.1427L63.352 85.2387L63.4668 85.3274C63.5787 85.4258 63.6886 85.5285 63.7918 85.6365C63.8386 85.6857 63.883 85.7368 63.9273 85.7884L63.9789 85.8492C64.0561 85.9591 64.1332 86.0691 64.2012 86.1863C64.2615 86.2933 64.316 86.4033 64.3647 86.5161C64.3647 86.5489 64.4072 86.6237 64.4163 86.6473C64.4424 86.7269 64.4679 86.806 64.4891 86.8812C64.5846 87.239 64.6222 87.6089 64.7018 87.9692C64.7312 88.1481 64.7795 88.3217 64.846 88.49C64.913 88.6588 64.9965 88.8179 65.0977 88.9684C65.1985 89.1193 65.3143 89.2573 65.4445 89.3831C65.5752 89.509 65.7174 89.6194 65.8718 89.7144C67.0089 90.3534 68.4451 90.0467 69.6406 89.7284C69.9179 89.6411 70.201 89.5818 70.4903 89.5505C70.3287 89.5625 70.5535 89.5505 70.5906 89.5505L70.8178 89.5249ZM65.9301 88.1375C65.9185 88.1163 65.9301 88.1235 65.9301 88.1375V88.1375ZM66.5479 88.7856L66.5995 88.8068C66.5995 88.8068 66.5686 88.7972 66.5479 88.7856ZM67.0321 88.9211H67.0788C67.0639 88.9284 67.0485 88.9322 67.0321 88.9332V88.9211Z" fill="#424242"/>
<path d="M17.1001 69.9417L17.0813 69.9648C17.06 69.9812 17.0321 70.0468 17.1001 69.9417Z" fill="#424242"/>
<path d="M17.4838 67.6741C17.3879 67.7821 17.4607 67.7049 17.4838 67.6741V67.6741Z" fill="#424242"/>
<path d="M15.9561 72.216C15.9888 72.0873 15.9609 72.1712 15.9561 72.216V72.216Z" fill="#424242"/>
<path d="M56.1787 8.03921L56.1951 8.00208L56.1787 8.03921Z" fill="#424242"/>
<path d="M59.1595 26.9304C60.8556 29.6913 62.6549 32.3866 64.3442 35.1519C64.5844 35.5468 64.8246 35.9437 65.0647 36.343C65.0773 36.3638 65.0917 36.3836 65.1067 36.4028C65.1221 36.4216 65.1385 36.44 65.1564 36.4569C65.1737 36.4737 65.1925 36.4896 65.2118 36.5041C65.2316 36.5186 65.2523 36.5321 65.2736 36.5437C65.2948 36.5557 65.317 36.5663 65.3396 36.5755C65.3623 36.5847 65.3854 36.5924 65.4091 36.5986C65.4327 36.6049 65.4563 36.6092 65.4809 36.6126C65.505 36.6155 65.5291 36.617 65.5537 36.617C65.5783 36.617 65.6024 36.6155 65.6266 36.6126C65.6512 36.6092 65.6748 36.6049 65.6984 36.5986C65.722 36.5924 65.7452 36.5847 65.7679 36.5755C65.7905 36.5663 65.8127 36.5557 65.8339 36.5437C65.8551 36.5321 65.8759 36.5186 65.8952 36.5041C65.9149 36.4896 65.9338 36.4737 65.9511 36.4569C65.969 36.44 65.9854 36.4216 66.0008 36.4028C66.0157 36.3836 66.0297 36.3638 66.0427 36.343C67.7147 33.8966 69.2309 31.3575 70.5909 28.7249C71.2439 27.5009 71.8799 26.2683 72.5305 25.0443C73.2042 23.7765 73.8639 22.5154 74.4021 21.1863C74.9509 19.8563 75.3946 18.4924 75.7331 17.0944C76.0722 15.6963 76.3022 14.2809 76.4237 12.8472C76.5501 11.4757 76.5501 10.1037 76.4237 8.73165C76.3258 7.57038 76.0312 6.4612 75.5393 5.40458C75.2929 4.904 74.9866 4.44249 74.6216 4.02052C74.257 3.59855 73.8442 3.22914 73.3846 2.91278C72.8425 2.55254 72.2653 2.26319 71.6518 2.04521C71.0389 1.82771 70.4081 1.68786 69.7604 1.62613C69.1041 1.55283 68.4511 1.57742 67.802 1.69992C67.1529 1.82241 66.5361 2.03701 65.9516 2.34421C65.371 2.67214 64.8361 3.06228 64.3467 3.51415C63.889 3.92262 63.4704 4.36677 63.0899 4.84806C61.5014 6.86002 60.5986 9.41018 60.912 11.9864C61.2159 14.4526 62.5237 17.024 64.8212 18.1795C65.9 18.7225 67.231 18.9988 68.3894 18.5354C69.7185 18.0044 70.4226 16.7616 70.818 15.4494C71.2135 14.1367 71.3562 12.5902 70.8855 11.2379C70.7804 10.9245 70.642 10.6269 70.4698 10.3443C70.2982 10.0622 70.0971 9.80273 69.867 9.56546C69.6365 9.32868 69.3828 9.11986 69.106 8.9395C68.8292 8.75962 68.5355 8.61205 68.2254 8.49775C67.9313 8.39503 67.6289 8.33331 67.3178 8.31257C67.0068 8.29183 66.6991 8.31305 66.3938 8.37623C66.3577 8.38635 66.3229 8.39986 66.2897 8.41625C66.2559 8.43313 66.2246 8.45339 66.1951 8.47653C66.1657 8.49968 66.1387 8.52524 66.1141 8.55369C66.09 8.58215 66.0688 8.61253 66.05 8.64484C66.0317 8.67763 66.0167 8.71187 66.0051 8.74708C65.9936 8.78277 65.9854 8.81942 65.981 8.85655C65.9767 8.89368 65.9757 8.93082 65.9786 8.96795C65.9815 9.00557 65.9883 9.04222 65.9984 9.0779C66.009 9.11359 66.023 9.14831 66.0403 9.18111C66.0572 9.21438 66.0775 9.24525 66.1006 9.27418C66.1242 9.3036 66.1498 9.33012 66.1783 9.35423C66.2062 9.37835 66.2366 9.39957 66.2694 9.41838C66.3017 9.4367 66.3355 9.45165 66.3707 9.46371C66.4059 9.47528 66.4421 9.48396 66.4792 9.48878C66.5158 9.49361 66.553 9.49505 66.5901 9.49312C66.6272 9.49071 66.6639 9.48493 66.7001 9.47576C66.7237 9.47576 66.8476 9.45503 66.8404 9.45261H67.0068C67.1293 9.45069 67.2518 9.45647 67.3738 9.46901L67.5122 9.49216C67.5797 9.50614 67.6453 9.52013 67.7109 9.53894L67.8792 9.59295L68.0291 9.64889C68.2674 9.75499 68.4911 9.88616 68.7004 10.0419L68.8104 10.1311L68.9464 10.2527C69.0544 10.3554 69.1567 10.4639 69.2526 10.5777L69.311 10.6529L69.3254 10.6693C69.3602 10.7205 69.3954 10.7696 69.4282 10.8212C69.5111 10.9442 69.5849 11.072 69.6505 11.2051C69.7055 11.3088 69.7518 11.4163 69.7884 11.5278C69.8448 11.6893 69.8935 11.8533 69.9336 12.0192C70.0059 12.3042 70.045 12.5935 70.0503 12.8872C70.0618 13.2142 70.0488 13.5402 70.0107 13.8652C70.0107 13.8956 70.0107 13.926 70.0107 13.9564C70.0102 13.9651 70.0102 13.9737 70.0107 13.9824C69.9967 14.0639 69.9852 14.1435 69.9688 14.2163C69.9403 14.3774 69.9056 14.5365 69.8656 14.6981C69.7903 15.0067 69.6977 15.3105 69.5873 15.6081C69.5617 15.6809 69.5333 15.7533 69.5053 15.8237V15.8376L69.4397 15.9336C69.3693 16.0812 69.2912 16.2244 69.2058 16.3643C69.078 16.6073 68.9136 16.8224 68.712 17.01C68.6585 17.0611 68.6045 17.1103 68.5461 17.1595H68.5321L68.4666 17.2063C68.3503 17.2878 68.2278 17.3587 68.0991 17.4194L68.048 17.445H68.0316L67.8464 17.5082C67.7157 17.5458 67.5831 17.5757 67.449 17.5969H67.3718C67.3062 17.5969 67.2407 17.5969 67.1727 17.5969C67.0314 17.6008 66.8901 17.5959 66.7492 17.5829L66.6345 17.5689L66.4734 17.5386C66.3374 17.513 66.2043 17.4778 66.0731 17.4402C65.942 17.403 65.8089 17.3514 65.6777 17.3022L65.6497 17.3375L65.5841 17.3071C65.5185 17.2791 65.4554 17.2482 65.3922 17.2159C65.1404 17.0891 64.8993 16.9439 64.6693 16.7804L64.5526 16.6917L64.4142 16.5793C64.3066 16.4882 64.2039 16.3922 64.1055 16.2939C63.9015 16.0894 63.7096 15.8743 63.5297 15.6481L63.5157 15.6293L63.4506 15.5406L63.3243 15.365C63.2423 15.2454 63.1651 15.1311 63.0899 14.9976C62.9385 14.7502 62.802 14.4941 62.6805 14.2303L62.6033 14.0572L62.5541 13.94C62.4982 13.7972 62.4466 13.6521 62.3974 13.505C62.3043 13.2282 62.2267 12.9475 62.1635 12.6625C62.1355 12.5294 62.11 12.3934 62.0863 12.2603C62.0724 12.1875 62.0632 12.1151 62.0511 12.0428C62.0511 11.9955 62.0511 11.9468 62.0328 11.9C62.0019 11.6097 61.986 11.3175 61.9836 11.0248C61.9817 10.7325 61.9947 10.4408 62.0232 10.15L62.0444 9.96043V9.94403L62.0584 9.84083C62.0815 9.69326 62.1076 9.54858 62.1379 9.40584C62.1987 9.11552 62.2735 8.83003 62.3603 8.54935C62.4022 8.41818 62.4466 8.28749 62.4934 8.15873C62.5194 8.08832 62.545 8.02081 62.5729 7.9504C62.5845 7.9176 62.599 7.8824 62.613 7.84961V7.80524C62.8459 7.26126 63.1266 6.7438 63.455 6.2519C63.5297 6.13713 63.6093 6.01753 63.6889 5.90998C63.7313 5.84922 63.7757 5.79087 63.82 5.73251L63.8456 5.69731L63.9208 5.60616C64.1055 5.37179 64.2999 5.15188 64.5058 4.9368C64.7112 4.72171 64.9104 4.52978 65.1231 4.33784C65.233 4.23946 65.357 4.14349 65.4602 4.04752L65.6333 3.9096L65.6637 3.88645L65.7384 3.83003C65.9805 3.64725 66.2347 3.48329 66.5014 3.33861C66.6277 3.27013 66.7565 3.20696 66.8872 3.14909C66.9108 3.14909 66.988 3.10954 67.0019 3.10231L67.2358 3.01839C67.5184 2.92532 67.8063 2.85346 68.0991 2.80283L68.2491 2.78209C68.3146 2.77245 68.3802 2.76569 68.4453 2.76087C68.5929 2.74689 68.7424 2.73965 68.8924 2.73724C69.4711 2.72663 70.0416 2.78836 70.6044 2.92339C71.1672 3.05794 71.7039 3.26145 72.2146 3.53296C72.4495 3.65931 72.6757 3.80013 72.8932 3.95397L73.0243 4.05235L73.0967 4.11311C73.2028 4.2004 73.3036 4.28961 73.3986 4.3798C73.5722 4.54569 73.7347 4.72171 73.8852 4.90883C73.904 4.93197 73.9228 4.95319 73.9392 4.97682C73.9695 5.02119 74.0043 5.06315 74.0347 5.1051C74.1099 5.21313 74.1822 5.32308 74.2502 5.43304C74.3809 5.6433 74.4986 5.86128 74.6032 6.08552C74.6293 6.14195 74.6524 6.2003 74.6804 6.25624C74.6896 6.27457 74.6973 6.29338 74.704 6.31267C74.7556 6.4366 74.8024 6.56295 74.8444 6.6893C75.0112 7.18506 75.1361 7.69094 75.2186 8.20792C75.2186 8.26627 75.235 8.32463 75.2446 8.38346C75.2446 8.4042 75.2446 8.42542 75.2446 8.44664C75.2451 8.45869 75.2451 8.47123 75.2446 8.48377C75.261 8.61976 75.2774 8.75528 75.289 8.8932C75.317 9.19509 75.3334 9.5018 75.3449 9.80562C75.371 10.4842 75.371 11.1627 75.3449 11.8388C75.2919 13.1669 75.1313 14.482 74.8632 15.7836C74.5907 17.1171 74.2232 18.423 73.7612 19.7029C73.3127 20.949 72.7769 22.1561 72.1539 23.3246C71.5477 24.4714 70.9347 25.6177 70.3314 26.7665C69.0419 29.2279 67.7273 31.6801 66.2274 34.0195C66.0124 34.3566 65.79 34.6933 65.5653 35.0255C64.0004 32.4522 62.3554 29.932 60.7529 27.3842C60.0276 26.2283 59.3163 25.0631 58.6474 23.8744C58.3359 23.313 58.034 22.7421 57.7489 22.1643C57.6115 21.8865 57.4779 21.6059 57.3487 21.3218L57.1804 20.9428L57.0887 20.7325L57.0704 20.6901C57.0704 20.6761 57.0256 20.5825 57.0212 20.571C56.5568 19.4449 56.1845 18.2889 55.9053 17.1036C55.7601 16.495 55.6405 15.8772 55.5494 15.2575L55.5214 15.0607C55.5214 15.0607 55.505 14.9344 55.5002 14.9064C55.4795 14.7357 55.4607 14.565 55.4418 14.3938C55.4091 14.0639 55.3811 13.7316 55.3623 13.3974C55.3145 12.7179 55.3145 12.0385 55.3623 11.3594C55.3623 11.2003 55.3902 11.0436 55.4091 10.8917C55.4091 10.8608 55.4303 10.7489 55.4091 10.868L55.423 10.7672C55.437 10.6693 55.4534 10.571 55.4722 10.4702C55.5306 10.1403 55.6034 9.81527 55.6921 9.49216C55.7814 9.16953 55.8817 8.84883 55.9964 8.53537C56.0524 8.37623 56.1156 8.2219 56.1787 8.06758C56.1855 8.05553 56.1908 8.04299 56.1951 8.02997C56.2067 8.00634 56.2163 7.98078 56.2279 7.95763C56.2655 7.87082 56.3027 7.78884 56.3427 7.70493C56.6287 7.0944 56.9619 6.51135 57.3414 5.95435C57.4374 5.81643 57.5334 5.6785 57.6342 5.54299L57.6949 5.46342L57.7465 5.39542C57.7653 5.37179 57.7933 5.33466 57.7933 5.33707L57.8869 5.21988C58.1005 4.95802 58.3228 4.70532 58.5533 4.46178C58.7877 4.22789 59.0216 3.99399 59.2787 3.7601C59.4031 3.64774 59.5314 3.54019 59.6601 3.43217L59.8381 3.28942L59.9061 3.23589L59.9808 3.17754C60.5185 2.77341 61.0861 2.41799 61.6841 2.11031C61.8312 2.03556 61.9836 1.96081 62.1355 1.8904L62.3694 1.7901H62.3974L62.5122 1.74332C62.8232 1.61697 63.1415 1.50894 63.4622 1.41105C63.7824 1.31267 64.1123 1.23551 64.4426 1.17667C64.4783 1.16654 64.513 1.15304 64.5463 1.13616C64.5796 1.11928 64.6109 1.09951 64.6404 1.07636C64.6698 1.05321 64.6968 1.02717 64.7209 0.999201C64.7455 0.970748 64.7667 0.939884 64.785 0.907573C64.8034 0.87478 64.8183 0.841022 64.8299 0.805336C64.8419 0.770131 64.8497 0.73348 64.8545 0.696346C64.8588 0.659213 64.8598 0.622079 64.8569 0.584946C64.854 0.547812 64.8477 0.511161 64.8376 0.474992C64.827 0.439306 64.813 0.405066 64.7961 0.37179C64.7788 0.338997 64.7585 0.308133 64.7354 0.278715C64.7117 0.24978 64.6862 0.223256 64.6577 0.199143C64.6293 0.175031 64.5989 0.153812 64.5666 0.135486C64.5343 0.117161 64.5005 0.102211 64.4648 0.0906366C64.4296 0.0785803 64.3934 0.0703819 64.3568 0.0655594C64.3197 0.060737 64.283 0.0597724 64.2459 0.0621836C64.2087 0.0641126 64.1721 0.0703819 64.1359 0.0795447C63.4497 0.22615 62.7808 0.42966 62.1293 0.690559C61.4777 0.951458 60.8532 1.2654 60.2552 1.63288C59.6577 2.00036 59.0954 2.41606 58.5683 2.87951C58.0417 3.34295 57.5575 3.84787 57.1172 4.39378C55.3203 6.5861 54.1996 9.34025 54.188 12.1947C54.188 13.5146 54.3037 14.8249 54.5357 16.1246C54.7677 17.4243 55.112 18.6935 55.5682 19.932C56.4806 22.3746 57.7793 24.6913 59.1595 26.9304Z" fill="#424242"/>
</svg>
