<svg width="101" height="100" viewBox="0 0 101 100" fill="none" xmlns="http://www.w3.org/2000/svg">
<path d="M83.3004 98.6424C76.6241 97.6948 70.0573 96.2519 63.5989 94.3132C57.6595 92.5212 51.7842 90.3308 46.5947 86.8557C41.7688 83.6202 37.4382 79.2742 34.9309 73.9675C32.7039 69.2645 31.912 62.3138 36.7032 58.8512C38.841 57.3042 41.6304 56.7621 44.2191 57.1807C46.9858 57.6311 49.4009 59.1608 51.2248 61.2572C53.0067 63.3092 54.3754 66.0117 54.8133 68.7075C55.1402 70.7147 54.7911 73.3212 53.311 74.836C53.1553 75.0043 52.9807 75.1504 52.7883 75.2744C52.5954 75.3988 52.3899 75.4967 52.1724 75.569C51.9549 75.6414 51.7317 75.6853 51.5031 75.7012C51.274 75.7171 51.0469 75.7041 50.8216 75.6626C49.5123 75.4152 48.5594 74.2616 48.1538 73.0464C47.6094 71.425 47.9855 69.6754 48.5102 68.096C49.006 66.6001 49.6107 65.15 50.324 63.7447C51.6232 61.1805 53.447 58.6608 56.1375 57.4378C58.3921 56.413 61.3516 56.3189 63.4007 57.8636C65.7715 59.646 66.0835 63.0618 65.9422 65.7841C65.8578 67.1484 65.6326 68.4891 65.2671 69.8066C64.901 71.1236 64.4029 72.3881 63.7721 73.601C61.1587 78.7442 56.8054 82.8703 52.1556 86.1825C49.6474 87.9451 47.0326 89.5317 44.3103 90.9423C41.2933 92.555 38.1644 93.9086 34.9237 95.0038C31.7104 96.0985 28.4109 96.7669 25.0245 97.0086C22.0548 97.1971 18.9862 97.0534 16.1722 96.0011C13.4499 94.9841 11.3415 92.989 10.4161 90.202C9.41395 87.1899 9.57454 83.9202 9.58225 80.7962L9.60685 69.4328V63.7943C9.60685 62.188 9.4289 60.3959 10.025 58.8662C10.5916 57.4132 12.0321 56.6782 13.3337 55.9973C14.9608 55.1461 16.5971 54.3132 18.244 53.4997C21.5103 51.8827 24.8104 50.3414 28.1427 48.8763C31.4341 47.4305 34.7506 46.0127 38.136 44.8047C41.4495 43.6241 44.8798 42.6635 48.3988 42.364C55.5087 41.7554 62.4874 43.7847 69.0851 46.2326C72.0895 47.3466 75.1016 48.4977 78.0313 49.8018C80.6201 50.9553 83.1939 52.2945 85.3471 54.1608C85.9012 54.6335 86.4167 55.1456 86.8932 55.6968C87.3692 56.248 87.8008 56.8325 88.1881 57.4498C88.5748 58.0671 88.9129 58.7104 89.2018 59.3793C89.4902 60.0482 89.7265 60.7354 89.9102 61.4405C90.7937 64.7994 90.8361 68.3709 91.0141 71.8185C91.2055 75.5464 91.3299 79.2776 91.3878 83.0116C91.4177 84.9059 91.4298 86.8036 91.4249 88.7046C91.4635 90.2276 91.4163 91.7481 91.2841 93.2663C91.0363 95.3429 90.3384 97.9345 88.1114 98.6521C87.4333 98.8725 87.7227 99.9469 88.4085 99.7265C90.9919 98.8922 91.9964 96.2167 92.3383 93.7466C92.5076 92.2082 92.5746 90.665 92.5385 89.1179C92.5385 87.1378 92.5269 85.1577 92.5037 83.1775C92.4444 79.2269 92.3099 75.2773 92.1006 71.3286C91.9125 67.7546 91.8532 64.0441 90.8284 60.5912C90.6085 59.8553 90.3351 59.1396 90.0081 58.4447C89.6806 57.7498 89.3035 57.0828 88.8767 56.4443C88.4494 55.8058 87.9773 55.203 87.4603 54.6349C86.9429 54.0673 86.3859 53.5412 85.7898 53.057C83.4736 51.1511 80.786 49.7723 78.0439 48.5841C74.8962 47.2178 71.6786 45.9727 68.4519 44.8047C64.9449 43.5349 61.3642 42.4185 57.6865 41.7626C55.8694 41.4202 54.0368 41.223 52.1888 41.1699C50.3408 41.1173 48.5001 41.2099 46.6666 41.4482C43.0164 41.9434 39.4897 43.0869 36.0498 44.401C28.936 47.1701 21.9858 50.3028 15.2 53.7992C13.6554 54.5765 11.98 55.2845 10.6114 56.3638C9.24323 57.4431 8.706 58.9033 8.56759 60.5714C8.41134 62.4329 8.51069 64.334 8.50538 66.2027V72.1725C8.50538 76.0489 8.44365 79.9252 8.4885 83.8059C8.52515 86.957 8.78027 90.3506 10.5694 93.056C14.1506 98.4939 21.8966 98.6521 27.6725 97.8578C34.7428 96.8947 41.4004 93.9443 47.5525 90.4321C52.851 87.4098 57.9267 83.628 61.7206 78.7987C65.3606 74.1729 67.7613 68.3806 66.9173 62.4083C66.6945 60.829 66.1751 59.2795 65.1677 58.0247C64.9497 57.7585 64.7125 57.5115 64.4554 57.283C64.1984 57.0548 63.9254 56.848 63.6356 56.6623C63.3462 56.4771 63.0439 56.3156 62.729 56.1781C62.414 56.0402 62.09 55.9283 61.7577 55.8415C59.0354 55.0988 56.0208 55.8415 53.8087 57.5318C51.2523 59.4724 49.6435 62.3264 48.4186 65.2348C47.1937 68.1433 45.7657 71.9179 47.8346 74.8312C48.6534 75.9818 49.8837 76.7915 51.3266 76.8113C51.5971 76.8099 51.8652 76.7804 52.13 76.7231C52.3948 76.6657 52.6508 76.5813 52.8977 76.4699C53.1447 76.3585 53.3776 76.223 53.5961 76.0624C53.8145 75.9023 54.0142 75.7214 54.1945 75.5194C55.8106 73.7591 56.246 71.017 55.9393 68.7201C55.7127 67.2955 55.2907 65.9317 54.6724 64.6282C54.0605 63.2634 53.2826 62.0013 52.3388 60.8415C50.4874 58.5667 47.9334 56.8017 45.0404 56.1955C42.2785 55.6139 39.262 55.9775 36.8194 57.4329C36.5161 57.62 36.2234 57.8231 35.9422 58.0415C35.6606 58.2605 35.392 58.4939 35.1359 58.7418C34.8798 58.9896 34.6377 59.2505 34.4101 59.525C34.182 59.7989 33.9698 60.0844 33.7726 60.3814C33.5758 60.6785 33.3954 60.9857 33.2319 61.3021C33.068 61.6189 32.9219 61.9434 32.7931 62.2757C32.6648 62.6085 32.5544 62.9465 32.4628 63.2913C32.3706 63.6357 32.2978 63.9839 32.2433 64.3364C31.2316 70.4205 34.3667 76.4154 38.1828 80.9201C42.2192 85.6674 47.5476 89.2342 53.2122 91.7467C56.2918 93.083 59.4395 94.2322 62.6557 95.1943C66.0859 96.249 69.563 97.1474 73.0646 97.9171C76.3512 98.6366 79.6618 99.2366 82.9961 99.7164C83.067 99.7343 83.1384 99.7376 83.2107 99.7275C83.2836 99.7174 83.3511 99.6942 83.4147 99.6581C83.4784 99.6224 83.5329 99.5756 83.5787 99.5187C83.624 99.4613 83.6578 99.3981 83.679 99.3282C83.6886 99.2925 83.6949 99.2568 83.6973 99.2202C83.6997 99.184 83.6988 99.1474 83.6944 99.1112C83.6896 99.075 83.6819 99.0398 83.6703 99.0051C83.6587 98.9704 83.6438 98.9371 83.626 98.9053C83.6081 98.8734 83.5869 98.8435 83.5633 98.816C83.5391 98.7881 83.5131 98.763 83.4842 98.7403C83.4552 98.7181 83.4249 98.6984 83.3921 98.682C83.3597 98.6656 83.3255 98.6521 83.2903 98.6424H83.3004Z" fill="#424242"/>
<path d="M46.639 0.6694C43.0361 1.35034 39.779 3.4168 37.4256 6.20422C36.8247 6.90686 36.2826 7.65194 35.7994 8.44043C35.3162 9.22843 34.8981 10.0497 34.5441 10.9043C34.1906 11.7583 33.9061 12.6351 33.691 13.5345C33.4754 14.4334 33.3322 15.3439 33.2603 16.2659C33.0129 19.9316 34.139 23.6169 36.1659 26.6614C36.6742 27.4291 37.2346 28.1564 37.847 28.8431C38.4595 29.5303 39.1183 30.1698 39.8228 30.762C40.5274 31.3542 41.2706 31.8929 42.0528 32.378C42.835 32.8637 43.6476 33.2905 44.491 33.6589C45.431 34.0688 46.3998 34.3914 47.3976 34.6273C48.3959 34.8631 49.4067 35.0082 50.4305 35.0622C50.973 35.0897 51.5146 35.0801 52.0557 35.0338C52.5963 34.988 53.1321 34.905 53.6616 34.7864C54.1916 34.6678 54.711 34.5139 55.2197 34.3244C55.729 34.1354 56.2228 33.9126 56.7017 33.6565C60.3345 31.7159 63.0641 28.1815 64.7519 24.498C66.5411 20.585 67.2563 16.1295 66.2889 11.8972C65.4252 8.11491 63.2473 4.61761 60.1021 2.32305C59.4737 1.85381 58.8019 1.45837 58.0872 1.13719C57.372 0.815523 56.6303 0.575361 55.8626 0.417182C54.2572 0.118667 52.6406 0.0280034 51.0121 0.144709C47.753 0.342915 44.3131 1.07546 41.4596 2.71898C40.8809 3.05077 40.3408 3.43609 39.8383 3.87494C39.2991 4.34996 40.0861 5.13458 40.6253 4.66197C41.6472 3.82237 42.7805 3.17953 44.0257 2.73393C45.5351 2.16583 47.087 1.75929 48.6809 1.51383C50.2641 1.25534 51.857 1.16467 53.4595 1.24135C54.1675 1.2727 54.8696 1.35516 55.5655 1.48875C55.9021 1.55578 56.2387 1.63728 56.5556 1.73614C56.7017 1.78099 56.8473 1.82536 56.991 1.87744C57.1348 1.92953 57.3349 2.00379 57.3894 2.02598C58.9586 2.68425 60.3591 3.82768 61.5073 5.06803C62.1193 5.73547 62.6676 6.4521 63.1523 7.21695C63.6375 7.9818 64.0508 8.78379 64.3932 9.62243C65.8954 13.3006 65.9272 17.3698 64.8137 21.1594C63.7002 24.9489 61.4876 28.602 58.4262 31.1541C57.7173 31.7607 56.9486 32.2787 56.1201 32.7084C55.2921 33.1381 54.4259 33.4684 53.5212 33.6984C51.4451 34.1937 49.2403 33.9907 47.196 33.451C46.3627 33.22 45.5506 32.9292 44.7597 32.5796C43.9688 32.23 43.2078 31.8244 42.4762 31.3634C41.7446 30.9018 41.0507 30.3902 40.3938 29.8274C39.737 29.2651 39.1245 28.6574 38.5564 28.0054C36.3294 25.4635 34.7626 22.2358 34.4115 18.8475C34.3324 17.9876 34.3247 17.1268 34.3874 16.2655C34.4501 15.4042 34.5827 14.554 34.7852 13.7143C34.9883 12.8747 35.2578 12.0578 35.5949 11.2626C35.932 10.4678 36.3318 9.70538 36.7948 8.97621C38.5888 6.08751 41.2889 3.68204 44.4862 2.46676C45.279 2.16535 46.0926 1.9358 46.9264 1.77858C46.9611 1.76846 46.9954 1.75543 47.0277 1.73904C47.0605 1.72264 47.0914 1.70335 47.1198 1.68117C47.1487 1.6585 47.1753 1.63391 47.1989 1.60594C47.223 1.57845 47.2442 1.54903 47.2621 1.5172C47.2804 1.48585 47.2954 1.45258 47.3069 1.41786C47.3185 1.38313 47.3267 1.34793 47.3315 1.31176C47.3363 1.27559 47.3373 1.23942 47.3349 1.20277C47.3325 1.1666 47.3267 1.13043 47.3171 1.09523C47.3069 1.06051 47.2929 1.02675 47.2765 0.994439C47.2597 0.962128 47.2399 0.931746 47.2172 0.903293C47.1946 0.87484 47.1695 0.848798 47.1415 0.825168C47.114 0.801538 47.0846 0.780318 47.0528 0.762475C47.0209 0.744632 46.9882 0.729682 46.9534 0.717625C46.9192 0.706051 46.884 0.697853 46.8478 0.692548C46.8117 0.687726 46.7755 0.686279 46.7393 0.688208C46.7027 0.690137 46.667 0.695442 46.6318 0.704122L46.639 0.6694Z" fill="#424242"/>
</svg>
