<svg width="101" height="100" viewBox="0 0 101 100" fill="none" xmlns="http://www.w3.org/2000/svg">
<g clip-path="url(#clip0_219_2427)">
<path d="M50.4952 0C22.9286 0 0.5 22.4286 0.5 49.9952C0.5 77.5617 22.9286 99.9904 50.4952 99.9904C78.0617 99.9904 100.49 77.5641 100.49 49.9952C100.49 22.4262 78.0641 0 50.4952 0ZM50.4952 98.805C23.5816 98.805 1.68538 76.9232 1.68538 49.9952C1.68538 23.0671 23.5816 1.18538 50.4952 1.18538C77.4088 1.18538 99.305 23.0816 99.305 49.9952C99.305 76.9088 77.4232 98.805 50.4952 98.805Z" fill="#424242"/>
<path d="M74.1476 28.6406C73.8906 28.3295 73.6191 28.0315 73.3326 27.7469C73.0461 27.4624 72.7467 27.1928 72.4337 26.9377C72.1207 26.6831 71.7961 26.4439 71.4595 26.2211C71.1234 25.9983 70.7767 25.7924 70.4198 25.6038C70.0629 25.4148 69.6978 25.2441 69.3246 25.0917C68.9508 24.9388 68.5703 24.8047 68.1836 24.6895C67.7968 24.5742 67.4052 24.4782 67.0093 24.4016C66.6129 24.3249 66.2136 24.268 65.8119 24.2308C63.7386 24.0543 61.6317 24.3953 59.6409 24.9566C57.9598 25.4302 56.3471 26.0755 54.803 26.8914C53.8712 27.3853 52.9844 27.95 52.1424 28.5851C52.0141 28.4351 51.8834 28.2876 51.7527 28.1448C49.2831 25.4427 45.9811 23.5123 42.4881 22.46C41.5598 22.1663 40.6112 21.9662 39.6433 21.8596C38.6754 21.753 37.7061 21.7419 36.7358 21.8263C35.1106 22.0014 33.5674 22.4557 32.1062 23.1882C29.203 24.6398 26.7966 27.0588 25.2022 29.8862C23.3976 33.0768 22.7085 36.7926 22.8946 40.4331C23.0953 44.3495 24.2372 48.1737 25.9425 51.6932C27.6863 55.2855 30.004 58.5581 32.4736 61.6763C34.4089 64.0953 36.5521 66.4709 38.4218 68.8923C40.2456 71.2577 42.0213 73.6647 43.8138 76.0571C44.5999 77.1046 45.386 78.1496 46.187 79.185C46.2145 79.212 46.2444 79.2361 46.2767 79.2573C46.309 79.2786 46.3433 79.2969 46.3794 79.3114C46.4151 79.3263 46.4523 79.3374 46.4899 79.3446C46.528 79.3519 46.5666 79.3557 46.6051 79.3557C46.6442 79.3557 46.6823 79.3519 46.7204 79.3446C46.7585 79.3374 46.7956 79.3263 46.8313 79.3114C46.867 79.2969 46.9012 79.2786 46.9335 79.2573C46.9659 79.2361 46.9962 79.212 47.0237 79.185C47.0507 79.157 47.0744 79.1267 47.0956 79.0939C47.1163 79.0615 47.1342 79.0273 47.1486 78.9911C47.1631 78.9555 47.1737 78.9183 47.1809 78.8802C47.1887 78.8421 47.192 78.804 47.192 78.765C47.192 78.7264 47.1887 78.6878 47.1809 78.6502C47.1737 78.6121 47.1631 78.575 47.1486 78.5388C47.1342 78.5031 47.1163 78.4689 47.0956 78.4361C47.0744 78.4038 47.0507 78.3734 47.0237 78.3454C45.4173 76.2674 43.7121 73.9501 42.0792 71.7757C40.6136 69.8187 39.1765 67.8328 37.5851 65.9698C35.115 63.0671 32.6453 60.1645 30.4781 57.0414C28.3108 53.9188 26.4624 50.5975 25.3112 46.9835C24.1958 43.4906 23.6904 39.7266 24.2879 36.0837C24.4099 35.2947 24.5878 34.5183 24.8217 33.7549C25.0556 32.9914 25.3435 32.2488 25.6845 31.5268C26.0254 30.8049 26.4165 30.1114 26.8578 29.4459C27.2991 28.7804 27.7857 28.1496 28.3181 27.5545C30.3474 25.3145 33.0133 23.6382 36.0124 23.0985C39.5903 22.4552 43.306 23.6671 46.4142 25.4042C47.3242 25.9081 48.1835 26.4878 48.9923 27.1427C49.8005 27.7976 50.5461 28.5176 51.228 29.3032C50.5283 29.8896 49.8955 30.5411 49.3308 31.2582C48.7661 31.9753 48.281 32.7431 47.8754 33.561C47.2051 34.9566 46.7455 36.5336 46.9075 38.0961C47.0503 39.5236 47.5923 40.9843 48.7897 41.8553C50.1444 42.84 51.9051 42.4793 53.117 41.454C54.4234 40.3506 55.0668 38.6406 55.2626 36.9811C55.5799 34.2767 54.4813 31.6595 52.8875 29.4946C55.3595 27.622 58.3615 26.4005 61.3732 25.7523C63.2574 25.3434 65.2433 25.2031 67.14 25.612C67.8532 25.7683 68.5433 25.9959 69.2103 26.2944C69.8768 26.5929 70.5056 26.9565 71.0974 27.3853C73.4483 29.0784 75.1247 31.6402 76.054 34.3519C77.1376 37.4962 77.1665 40.8565 76.4943 44.105C75.7173 47.8448 74.1163 51.3619 72.261 54.6711C70.4405 57.9041 68.444 61.0243 66.2714 64.0326C64.1196 67.0289 61.8159 69.9031 59.3603 72.6563C56.9075 75.4066 54.3183 78.0223 51.5931 80.503C50.2722 81.7048 48.9204 82.8728 47.5364 84.008C47.5094 84.036 47.4852 84.0659 47.464 84.0982C47.4428 84.1305 47.4245 84.1647 47.41 84.2004C47.3951 84.2366 47.384 84.2733 47.3767 84.3114C47.369 84.3494 47.3656 84.388 47.3656 84.4266C47.3656 84.4657 47.369 84.5038 47.3767 84.5419C47.384 84.58 47.3951 84.6166 47.41 84.6528C47.4245 84.6885 47.4428 84.7227 47.464 84.755C47.4852 84.7873 47.5094 84.8177 47.5364 84.8452C47.5643 84.8722 47.5947 84.8963 47.627 84.9171C47.6598 84.9383 47.6941 84.9561 47.7297 84.9706C47.7659 84.9851 47.803 84.9962 47.8411 85.0034C47.8792 85.0106 47.9173 85.0145 47.9564 85.0145C47.995 85.0145 48.0336 85.0106 48.0717 85.0034C48.1098 84.9962 48.1464 84.9851 48.1826 84.9706C48.2183 84.9561 48.2525 84.9383 48.2853 84.9171C48.3176 84.8963 48.348 84.8722 48.376 84.8452C51.3481 82.4036 54.1794 79.8081 56.8689 77.0588C59.5464 74.3215 62.0676 71.4482 64.4331 68.4375C66.8227 65.4032 69.0396 62.2478 71.0853 58.9719C73.1508 55.6361 75.1054 52.1528 76.4552 48.4327C77.7496 44.8742 78.4633 41.0113 77.9357 37.2329C77.8282 36.4458 77.6661 35.6704 77.4501 34.9065C77.234 34.1426 76.9659 33.397 76.6452 32.6703C76.325 31.944 75.9556 31.2433 75.5375 30.5681C75.1189 29.8935 74.6559 29.2506 74.1476 28.6406ZM54.0994 36.3812C54.0434 37.8328 53.5501 39.3736 52.4881 40.4066C52.3695 40.5334 52.2393 40.6482 52.0985 40.7504C51.9577 40.8522 51.8086 40.9404 51.651 41.0137C51.4933 41.0875 51.3298 41.1454 51.161 41.1873C50.9922 41.2298 50.821 41.2558 50.6474 41.265C50.3768 41.265 50.1159 41.2143 49.8647 41.1131C49.6139 41.0118 49.3911 40.8676 49.1958 40.6795C48.3157 39.838 48.0109 38.4689 48.0471 37.269C48.0929 35.8517 48.6759 34.4049 49.4138 33.1954C50.1068 32.0795 50.9522 31.0933 51.949 30.2373C52.3946 30.8488 52.7857 31.4941 53.1218 32.1721C53.4575 32.8217 53.7078 33.5026 53.8732 34.2144C54.0386 34.9267 54.1138 35.6482 54.0994 36.3788V36.3812Z" fill="#424242"/>
</g>
<defs>
<clipPath id="clip0_219_2427">
<rect width="100" height="100" fill="white" transform="translate(0.5)"/>
</clipPath>
</defs>
</svg>
