<svg width="150" height="52" viewBox="0 0 150 52" fill="none" xmlns="http://www.w3.org/2000/svg">
<path fill-rule="evenodd" clip-rule="evenodd" d="M138.698 0.812265C136.98 1.12602 135.745 1.59066 134.207 2.50154C133.95 2.65392 133.725 2.79428 133.708 2.81343C133.691 2.83257 133.593 2.90125 133.49 2.96618C132.385 3.66238 130.557 5.47363 129.604 6.81725C129.445 7.04094 129.3 7.23797 129.282 7.25524C129.263 7.2725 129.215 7.34269 129.174 7.41174C129.133 7.48042 128.98 7.73376 128.834 7.97471C128.406 8.67992 127.911 9.6197 127.631 10.2577C127.533 10.4814 127.387 10.8102 127.306 10.9888C127.225 11.1671 127.159 11.3319 127.159 11.3544C127.159 11.3773 127.114 11.4989 127.059 11.6242C127.004 11.75 126.935 11.9091 126.905 11.9778C126.856 12.0904 126.686 12.5805 126.349 13.5729C126.045 14.4702 125.404 16.6793 125.29 17.2228C125.26 17.3658 125.138 17.9047 125.019 18.4208C124.9 18.9368 124.741 19.6826 124.667 20.0785C124.593 20.4741 124.494 20.9946 124.447 21.2356C124.4 21.4765 124.317 21.969 124.262 22.3304C124.207 22.6914 124.135 23.1279 124.102 23.2998C124.068 23.4717 124.011 23.8658 123.974 24.1754C123.936 24.485 123.866 25.0623 123.818 25.4578C123.769 25.8534 123.702 26.5151 123.667 26.9279C123.633 27.3408 123.592 27.8122 123.576 27.9754C123.561 28.1391 123.572 28.2727 123.602 28.2727C123.737 28.2727 124.347 26.8405 124.601 25.927C124.716 25.5138 125.076 24.0808 125.183 23.6124C125.304 23.0817 125.513 22.1517 125.597 21.7674C125.669 21.436 125.876 20.5293 126.011 19.9532C126.063 19.7295 126.205 19.1526 126.326 18.6711C126.448 18.1892 126.573 17.6825 126.606 17.5452C126.638 17.4074 126.702 17.1683 126.749 17.0133C126.795 16.8583 126.881 16.563 126.939 16.3565C126.997 16.1501 127.066 15.9249 127.094 15.8563C127.121 15.7872 127.275 15.3244 127.436 14.8279C127.692 14.0394 128.049 13.0561 128.22 12.6661C128.25 12.597 128.338 12.3861 128.415 12.197C129.241 10.1665 130.841 7.65757 132.166 6.31508C133.01 5.459 134.211 4.46855 134.644 4.27038C134.695 4.24674 134.835 4.16042 134.955 4.07785C135.196 3.91346 136.33 3.358 136.577 3.28369C136.663 3.25779 136.761 3.21576 136.795 3.18986C136.884 3.12381 138.027 2.77402 138.515 2.66368C140.312 2.25684 142.455 2.45726 143.819 3.15946C144.004 3.25442 144.24 3.37564 144.342 3.42819C145.858 4.20433 147.512 6.56992 147.827 8.41232C147.845 8.51553 147.89 8.76887 147.927 8.97529C148.289 10.9821 147.816 14.0615 146.804 16.2957C146.474 17.0242 146.01 17.9632 145.8 18.3269C145.692 18.5161 145.571 18.7274 145.533 18.7961C145.329 19.165 143.873 21.29 143.755 21.3921C143.735 21.409 143.607 21.564 143.471 21.7359C143.335 21.9081 143.209 22.0628 143.191 22.08C143.172 22.0973 143.004 22.2943 142.816 22.518C142.093 23.3809 140 25.5262 139.247 26.1773C139.008 26.3837 138.738 26.6191 138.646 26.7005C138.448 26.8761 137.225 27.7938 136.827 28.0655C135.755 28.7959 134.181 29.5851 132.656 30.1564C131.6 30.5519 129.741 31.2125 129.684 31.2125C129.661 31.2125 129.553 31.2515 129.445 31.2988C129.337 31.3461 129.108 31.4343 128.937 31.4947C128.15 31.7721 126.722 32.3564 126.722 32.4019C126.722 32.7314 130.024 32.4154 131.587 31.9361C131.879 31.8468 132.16 31.7623 132.211 31.7488C133.751 31.3401 137.333 29.3937 139.041 28.0374C139.075 28.01 139.201 27.9188 139.321 27.8339C139.442 27.7495 139.596 27.6324 139.665 27.5742C139.733 27.5161 140 27.2939 140.257 27.0799C140.515 26.866 140.921 26.5211 141.162 26.3136C141.826 25.7382 143.725 23.8087 144.25 23.1748C144.506 22.8652 144.731 22.5976 144.749 22.5803C144.767 22.5634 144.879 22.4227 144.997 22.2677C145.116 22.1127 145.228 21.972 145.247 21.9551C145.306 21.9014 145.958 21.0055 146.249 20.5788C146.401 20.3551 146.546 20.163 146.572 20.1513C146.598 20.1401 146.619 20.104 146.619 20.0717C146.619 20.0395 146.759 19.8004 146.931 19.5407C147.102 19.281 147.243 19.0569 147.243 19.0426C147.243 19.0288 147.353 18.8355 147.489 18.6129C147.892 17.9524 148.724 16.1929 148.984 15.4494C149.062 15.2257 149.151 14.9867 149.181 14.918C149.375 14.4766 149.757 12.8549 149.894 11.8888C150.401 8.3215 149.049 4.67797 146.496 2.73273C146.306 2.58824 146.119 2.44187 146.081 2.40734C145.986 2.32289 145.806 2.20017 145.642 2.10822C145.567 2.06618 145.343 1.93857 145.143 1.82448C144.286 1.33545 143.279 1.00292 141.906 0.755593C141.323 0.65013 139.399 0.684283 138.698 0.812265ZM111.66 2.87573C107.28 3.82151 104.827 7.86212 105.735 12.6361C105.751 12.7213 105.793 12.9457 105.829 13.1352C105.896 13.488 105.908 13.5387 106.167 14.4488C106.307 14.9431 106.567 15.6904 106.7 15.9812C106.731 16.0499 106.818 16.247 106.894 16.4192C107.281 17.3057 108.325 19.2311 108.506 19.3902C108.525 19.4074 108.702 19.6608 108.898 19.9532C109.095 20.2455 109.319 20.56 109.398 20.6516C109.475 20.7432 109.721 21.0389 109.942 21.3084C111.501 23.2052 113.663 24.8945 115.652 25.7679C115.823 25.8429 116.048 25.9416 116.151 25.9867C116.253 26.0317 116.492 26.1161 116.681 26.1747C116.869 26.2329 117.059 26.2918 117.102 26.3053C117.235 26.347 117.188 26.2498 116.945 25.9852C116.817 25.8452 116.598 25.6057 116.459 25.4533C116.319 25.301 116.067 25.0649 115.897 24.9283C115.728 24.7917 115.575 24.6648 115.558 24.646C115.541 24.6273 115.359 24.4997 115.153 24.3627C113.95 23.5621 111.881 21.5355 110.78 20.0785C107.809 16.1471 106.622 11.613 107.744 8.48025C108.9 5.24845 112.138 3.70291 114.997 5.01876C117.096 5.98481 119.257 8.67467 120.386 11.7278C120.551 12.1748 120.71 12.597 120.739 12.6661C120.785 12.7753 120.919 13.2381 120.956 13.4167C120.963 13.4509 121.027 13.6903 121.097 13.9482C121.724 16.2346 121.858 18.7469 121.579 22.9872C121.525 23.8129 121.466 25.0653 121.447 25.7705L121.413 27.0529L121.541 26.8964C121.727 26.6686 122.128 25.8692 122.311 25.364C123.73 21.4255 123.23 13.6581 121.291 9.51912C119.017 4.66709 115.285 2.09283 111.66 2.87573ZM95.8177 3.2C92.2173 4.06772 90.5236 7.56412 91.778 11.5402C91.8648 11.8153 91.9527 12.0686 91.9733 12.1031C91.9943 12.1373 92.0141 12.1797 92.0175 12.197C92.0755 12.4822 93.0286 14.3171 93.2996 14.665C93.3272 14.701 93.6102 15.082 93.9279 15.5121C94.4634 16.2368 96.025 17.8961 96.6908 18.4474C99.0911 20.4358 101.775 21.7948 104.456 22.3788C105.545 22.616 105.734 22.6456 106.548 22.7053C107.886 22.8033 108.048 22.7822 107.512 22.5811C107.392 22.536 107.21 22.4625 107.107 22.4174C107.004 22.3728 106.218 22.1071 105.36 21.8275C104.503 21.5478 103.745 21.296 103.676 21.2679C103.608 21.2397 103.369 21.1541 103.146 21.0776C99.4215 19.8008 96.9471 17.9967 94.7856 14.9818C94.5644 14.6729 94.3552 14.3715 94.3208 14.3122C94.2864 14.2529 94.1386 14.0075 93.9922 13.7665C92.4138 11.1694 91.8408 8.11958 92.6417 6.57968C92.6899 6.4866 92.7296 6.38827 92.73 6.36087C92.7307 6.26779 93.1555 5.66166 93.3961 5.40983C94.2175 4.55074 95.1913 4.14128 96.833 3.96338C97.867 3.85154 97.9347 3.86054 97.7079 4.0771C96.2013 5.51679 96.8031 7.49769 98.9676 8.22279C100.74 8.81653 101.659 6.88968 100.537 4.92906C100.355 4.60967 99.8728 4.06509 99.7729 4.06509C99.7463 4.06509 99.6857 4.02568 99.6378 3.97764C99.0207 3.35875 96.9269 2.9324 95.8177 3.2ZM87.0837 11.9444C86.3625 12.144 85.3278 12.6301 85.0194 12.9138C84.9809 12.9495 84.8873 13.0208 84.8121 13.0726C82.6255 14.5674 81.7345 17.2787 82.6555 19.6353C82.8078 20.0256 83.225 20.8314 83.3059 20.8914C83.3291 20.9087 83.4776 21.1057 83.6359 21.3294C83.9843 21.8207 84.9068 22.7316 85.589 23.2578C85.8633 23.4691 86.1159 23.665 86.1503 23.6928C86.2768 23.7948 87.2835 24.3856 87.6139 24.5515C91.3083 26.4096 96.5235 26.7602 102.149 25.5284C103.419 25.2503 105.823 24.4997 106.318 24.2264L106.483 24.136L106.267 24.1792C106.148 24.2032 106.008 24.2452 105.955 24.273C105.902 24.3008 105.747 24.3511 105.61 24.3852C105.473 24.419 105.15 24.5034 104.893 24.5725C102.853 25.1193 100.844 25.3374 97.8449 25.3374C94.9461 25.337 92.5137 25.0758 90.5161 24.55C90.3102 24.4955 90.0296 24.4231 89.8926 24.389C89.5554 24.3045 88.7714 24.0343 88.4268 23.8838C88.1794 23.7757 87.9444 23.6582 87.2079 23.2739C86.4729 22.89 85.1078 21.7318 84.5483 21.0168C83.0488 19.1016 82.8216 17.0715 83.9016 15.2396C84.3361 14.5029 86.214 12.4897 85.8757 13.1232C85.7447 13.3694 85.7915 14.2221 85.9569 14.5971C86.7581 16.4136 90.0891 16.2653 90.4887 14.3955C90.8547 12.6841 89.0648 11.3953 87.0837 11.9444ZM134.815 14.7941C133.256 15.1184 131.424 16.3862 130.207 17.9828C130.128 18.086 130.049 18.1847 130.03 18.2019C129.831 18.3881 129.277 19.4026 128.716 20.6099C128.539 20.9894 128.065 22.5616 127.999 22.9872C127.988 23.0559 127.936 23.3306 127.884 23.5971C127.539 25.3573 127.483 29.9616 127.807 29.9616C128.161 29.9616 130.287 28.952 131.494 28.2104C132.394 27.6575 134.451 26.1901 134.644 25.963C134.661 25.9427 134.857 25.7735 135.08 25.5866C137.417 23.6297 139.005 21.2761 139.26 19.3917C139.622 16.7086 137.277 14.2822 134.815 14.7941ZM116.65 15.0527C114.803 15.5447 113.989 17.404 114.66 19.5989C114.94 20.5154 115.79 22.1675 116.226 22.6423C116.305 22.7282 116.369 22.8153 116.369 22.8359C116.369 22.8569 116.418 22.9312 116.478 23.0014C116.538 23.0716 116.775 23.3501 117.006 23.6207C118.152 24.9703 119.588 25.835 120.08 25.4725C120.466 25.188 120.689 23.0825 120.553 21.0014C120.484 19.9622 120.462 19.8034 120.227 18.7334C119.635 16.0428 118.257 14.6245 116.65 15.0527ZM109.84 23.6098C109.025 24.3094 109.067 26.1023 109.917 26.9415C110.499 27.5149 111.418 27.7412 112.03 27.4616C112.641 27.1824 112.992 27.4714 114.181 29.2339C115.002 30.4491 115.565 30.7088 116.817 30.4495C117.24 30.362 117.28 30.2911 117.362 29.4789C117.509 28.0092 117.114 27.3757 115.652 26.7388C115.549 26.6937 115.254 26.5965 114.997 26.5219C114.74 26.4475 114.459 26.3631 114.373 26.3338C114.287 26.3049 114.049 26.2336 113.843 26.1758C112.997 25.9375 112.89 25.885 112.771 25.6504C111.793 23.7179 110.645 22.9189 109.84 23.6098ZM118.048 29.8745C117.42 31.3225 117.946 32.2784 119.431 32.3827L119.905 32.4161L120.016 32.0802C120.47 30.7077 119.904 29.73 118.583 29.6062L118.181 29.5686L118.048 29.8745ZM120.614 32.2604C120.087 34.1624 121.633 35.9497 122.755 34.7367C123.768 33.6419 122.774 32.0258 121.087 32.0258H120.678L120.614 32.2604ZM132.804 34.4406C131.817 34.5828 130.73 34.8718 130.236 35.124L130.1 35.1931L130.236 35.4227C130.965 36.6568 132.126 37.9835 133.521 39.1759C133.881 39.484 134.246 39.7959 134.332 39.8698C135.019 40.4598 136.299 41.2127 137.096 41.4964C139.575 42.3788 141.66 41.3095 141.66 39.1567C141.66 36.9765 139.608 35.2561 136.172 34.5561C135.69 34.4578 133.262 34.3745 132.804 34.4406ZM123.666 35.2786C123.666 36.2068 124.41 39.451 124.85 40.4392C125.8 42.5754 126.456 43.2375 127.334 42.9451C128.616 42.518 128.701 40.751 127.534 38.7874C127.362 38.4984 127.222 38.2533 127.222 38.2432C127.222 38.2331 127.131 38.0897 127.021 37.9246C126.067 36.4924 125.248 35.6862 124.245 35.1889C123.671 34.9048 123.666 34.9056 123.666 35.2786Z" fill="white"/>
<path fill-rule="evenodd" clip-rule="evenodd" d="M0.751185 26.9384C0.675217 26.9542 0.541993 27.0522 0.454798 27.1557L0.296875 27.3442V39.3759V51.4076L0.529269 51.6002C0.899004 51.9053 1.41132 51.8216 1.61677 51.4223C1.70471 51.2519 1.78367 28.1961 1.69835 27.5964C1.63099 27.1193 1.22795 26.8397 0.751185 26.9384ZM25.5511 33.4711L25.37 33.6655V42.4534C25.37 52.1406 25.3419 51.45 25.7469 51.6899C26.0335 51.8599 26.4725 51.7507 26.621 51.4725C26.6648 51.3907 26.6847 49.9593 26.6817 47.1347C26.6768 42.7653 26.7236 41.6582 26.965 40.4703C27.6681 37.0099 29.4726 35.0564 32.2258 34.7753C33.2542 34.6702 33.9424 34.7652 34.6632 35.1123C35.3229 35.4295 36.0699 36.2458 36.2555 36.8523C36.2802 36.933 36.3198 37.0268 36.3442 37.0613C36.4823 37.2573 36.6589 37.8893 36.8602 38.9064C36.9852 39.5376 36.9912 39.7914 37.0159 45.436C37.0444 51.9646 37.0133 51.5371 37.4687 51.6741C37.7808 51.7679 38.0933 51.6651 38.2366 51.4223C38.3343 51.256 38.3433 50.8852 38.3433 46.9136C38.3433 41.9531 38.3878 41.2787 38.8204 39.7197C39.0472 38.9022 39.6074 37.6296 39.8903 37.2892C39.9483 37.2193 40.0644 37.0688 40.1482 36.9551C42.2843 34.051 46.9175 33.9887 47.794 36.8523C47.8187 36.933 47.8606 37.0268 47.8872 37.0613C47.9137 37.0955 47.9643 37.2223 47.9994 37.3428C48.2258 38.1175 48.3216 38.4992 48.407 38.969C48.4601 39.2614 48.5219 39.5992 48.5439 39.7197C48.566 39.8401 48.6023 42.5244 48.6248 45.6845L48.6656 51.4305L48.8815 51.6114C49.2344 51.9068 49.7149 51.8021 49.9046 51.3885C50.1119 50.9366 49.9499 39.9993 49.7183 38.8125C49.0656 35.4696 47.6641 33.7755 45.2605 33.4242C44.3732 33.2943 43.0043 33.455 42.2412 33.7789C42.1727 33.8078 41.9808 33.8892 41.8146 33.9598C41.0729 34.2747 40.1119 35.0872 39.5595 35.8671C39.4907 35.9639 39.4053 36.075 39.3694 36.1141C39.1625 36.3411 38.713 37.2066 38.4758 37.836L38.3018 38.298L38.1917 37.6258C37.9975 36.4391 37.5439 35.5458 36.7427 34.7734C36.3801 34.4237 35.6294 33.9031 35.4864 33.902C35.4625 33.9016 35.3607 33.8584 35.26 33.8059C35.1594 33.7533 34.9629 33.6813 34.8233 33.6464C34.6837 33.6111 34.4573 33.5514 34.3204 33.5131C33.5311 33.2932 31.4036 33.4666 30.6092 33.8156C28.9798 34.5317 27.5566 35.9801 26.9287 37.5616C26.8467 37.7681 26.7573 37.9636 26.7296 37.9962C26.7022 38.0289 26.6798 37.0628 26.6798 35.8491V33.6426L26.4975 33.4599C26.2303 33.1919 25.8064 33.1968 25.5511 33.4711ZM54.447 33.3915C54.1708 33.6314 54.1753 33.4561 54.2224 42.6467L54.2673 51.4241L54.49 51.608C54.7374 51.8126 54.9162 51.837 55.1771 51.7015C55.57 51.4977 55.5483 51.7867 55.5734 46.3732C55.5977 41.1166 55.5854 41.35 55.9076 39.97C56.0603 39.3166 56.415 38.3194 56.6302 37.9369C56.6691 37.8683 56.7679 37.678 56.8499 37.5147C58.3606 34.4991 63.156 33.7293 64.758 36.2454C65.2221 36.9739 65.4979 37.7951 65.737 39.1567C65.7707 39.35 65.8156 42.0913 65.8388 45.412C65.8706 50.0047 65.8975 51.3539 65.9589 51.4617C66.0738 51.6628 66.4589 51.7645 66.7463 51.6692C67.1729 51.5281 67.1583 51.6805 67.1598 47.3073C67.1613 42.4253 67.2013 41.681 67.5445 40.1577C67.7541 39.2258 68.4108 37.5826 68.6436 37.4066C68.6675 37.3886 68.7712 37.2482 68.8737 37.0947C69.6694 35.9058 71.1363 34.9829 72.5535 34.7806C74.8969 34.4454 76.2831 35.4058 76.9746 37.8431C77.4035 39.3549 77.4069 39.4138 77.4458 45.7051L77.4809 51.4091L77.695 51.6005C77.9873 51.8621 78.2844 51.8621 78.5767 51.6009L78.7904 51.4091L78.7687 45.7678C78.7567 42.6651 78.7383 40.1122 78.7282 40.095C78.7178 40.0777 78.6758 39.7823 78.6351 39.4382C78.3188 36.766 77.216 34.7307 75.6248 33.8821C74.4624 33.2624 72.3713 33.2151 71.0566 33.7792C70.1053 34.188 69.782 34.4008 69.1166 35.0594C68.1672 35.9988 67.8282 36.5412 67.1624 38.1873C67.1246 38.2804 67.101 38.2165 67.0696 37.9369C66.7212 34.8372 64.2914 33.0699 60.9099 33.4576C58.7259 33.7076 56.6987 35.3251 55.7377 37.5841L55.561 37.9996L55.5588 35.9977C55.5566 33.8618 55.5285 33.6115 55.2662 33.4047C55.0566 33.2392 54.6296 33.2324 54.447 33.3915ZM6.3047 33.4366C5.88519 33.6209 5.91026 33.2763 5.91026 38.8666C5.91026 44.0628 5.92448 44.4362 6.17147 45.7247C6.68304 48.3939 8.08863 50.3515 10.1076 51.2061C11.5244 51.8062 13.5258 51.9312 14.9067 51.5067C15.2435 51.4031 15.2708 51.3926 15.7865 51.1655C17.1067 50.5857 18.4988 49.2567 19.4333 47.6842L19.7518 47.1486L19.7697 49.2774L19.7877 51.4065L19.9333 51.533C20.2289 51.7901 20.7027 51.7762 20.9755 51.5022L21.1289 51.3487V42.5901C21.1289 36.2627 21.1094 33.7935 21.0589 33.6948C20.8535 33.2913 20.2835 33.2043 19.9291 33.5218L19.7256 33.7046L19.7458 38.5731C19.7697 44.3465 19.7506 44.5484 19.0336 46.0917C18.3398 47.5847 16.5454 49.4211 15.4497 49.7589C15.3658 49.7848 15.2689 49.8264 15.2348 49.8516C14.9164 50.0854 13.8158 50.2974 12.927 50.2959C9.79136 50.2907 7.98796 48.4524 7.44272 44.7064C7.36001 44.1367 7.34467 43.245 7.34467 38.9612C7.34467 33.3259 7.36937 33.6513 6.92816 33.4403C6.67817 33.321 6.56965 33.3202 6.3047 33.4366ZM89.4251 33.4662C88.3428 33.6708 86.8429 34.2882 86.3243 34.743C86.1955 34.8556 86.0971 34.9284 85.8539 35.091C85.0542 35.6243 83.8331 37.1552 83.2844 38.3123C82.8821 39.1608 82.82 39.3293 82.5708 40.2515C82.2048 41.6075 82.24 43.7847 82.6509 45.1928C82.701 45.3651 82.7751 45.6184 82.8155 45.7558C83.2051 47.0863 84.8034 49.3404 85.8539 50.0407C85.9826 50.1267 86.1222 50.225 86.1641 50.2595C86.2057 50.2941 86.2756 50.3519 86.3198 50.3883C86.3639 50.4247 86.5683 50.5527 86.7741 50.6728C89.4105 52.2108 92.5372 52.132 95.0871 50.4633C96.0583 49.8276 97.0234 48.9017 97.6091 48.0433L97.9571 47.5325L97.9234 49.3093C97.8864 51.2425 97.8931 51.3157 98.1311 51.5998C98.3635 51.8768 98.8687 51.882 99.1396 51.6099L99.3211 51.4279L99.3627 45.4071C99.4439 33.6734 99.4443 33.7038 99.1318 33.4501C98.8687 33.2365 98.1708 33.3656 98.0607 33.649C98.0402 33.7023 98.0065 34.7551 97.9867 35.9879C97.9612 37.5466 97.9309 38.1952 97.8875 38.1148C97.8527 38.0514 97.8066 37.9854 97.7846 37.9681C97.7629 37.9508 97.6779 37.8243 97.596 37.6866C97.172 36.9735 96.3318 35.991 95.5953 35.3473C94.9 34.7393 94.8592 34.7074 94.3836 34.4008C92.9107 33.4508 91.2064 33.13 89.4251 33.4662ZM110.85 33.4388C108.651 33.7368 106.731 35.1424 105.329 37.4802L105.018 37.9996L105.017 35.9354C105.016 33.6314 105.012 33.6089 104.618 33.479C104.303 33.3754 103.986 33.4388 103.797 33.6438L103.646 33.8074V42.5536C103.646 48.8724 103.665 51.3378 103.715 51.4365C103.967 51.9308 104.761 51.9256 105.015 51.4279C105.071 51.3187 105.086 50.061 105.076 46.33C105.06 40.721 105.052 40.8467 105.5 39.6258C107.419 34.388 114.145 33.0624 116.452 37.4678C117.384 39.2479 117.491 40.2031 117.492 46.7046C117.492 51.7972 117.473 51.4977 117.809 51.6696C118.185 51.8621 118.543 51.7859 118.767 51.4658C118.877 51.3085 118.908 41.788 118.803 40.7206C118.48 37.4697 117.223 35.2576 115.039 34.0994C114.721 33.9309 114.472 33.8385 113.655 33.5871C113.428 33.5177 111.925 33.3364 111.66 33.3469C111.558 33.3506 111.192 33.3923 110.85 33.4388ZM92.481 34.957C92.7041 35.0241 92.9889 35.1105 93.1135 35.1488C96.1249 36.0683 98.3545 40.2327 97.7464 43.8012C96.6297 50.3515 89.1987 52.651 85.4332 47.6113C85.3475 47.4965 85.248 47.37 85.2121 47.3299C85.0122 47.1066 84.5527 46.2343 84.2507 45.5058C83.5868 43.9025 83.5778 41.4851 84.229 39.7058C84.3847 39.2809 84.9018 38.2259 84.989 38.1557C85.0104 38.1385 85.1395 37.9583 85.2761 37.7553C86.2595 36.2912 88.0218 35.1769 89.924 34.8162C90.3262 34.74 92.0821 34.8365 92.481 34.957Z" fill="white"/>
</svg>
